<svg width="36" height="35" viewBox="0 0 36 35" fill="none" xmlns="http://www.w3.org/2000/svg">
<path fill-rule="evenodd" clip-rule="evenodd" d="M8.17313 0.46277C8.17172 0.46605 8.17 0.469336 8.16861 0.472842C8.15611 0.499736 8.14683 0.523352 8.13743 0.551458L0.0409901 24.9503C-0.044879 25.2088 0.00521839 25.4694 0.181378 25.6802C0.357119 25.891 0.60937 25.9926 0.887006 25.9641C2.18335 25.8317 2.98055 25.0133 4.07778 23.9247C5.22601 22.7856 6.8044 21.0806 8.70061 21.6073C12.3482 22.6202 10.0638 29.0598 13.4722 30.2418C16.4675 31.2808 18.4954 26.9903 21.0436 26.0136C22.8178 25.3336 24.7809 25.4702 26.1663 27.0723C27.4703 28.58 27.4608 31.0356 26.0231 32.5563C25.8463 32.7434 25.8147 33.0086 25.9432 33.2299C26.0776 33.4614 26.2337 33.6802 26.4167 33.8821C26.6095 34.0949 26.8827 34.1856 27.1692 34.1319C27.4558 34.0783 27.6746 33.8957 27.7725 33.6282C30.4884 26.201 33.475 16.7957 35.9594 9.28679C36.0458 9.02569 35.9932 8.76138 35.8128 8.55043C35.6325 8.33955 35.3752 8.24067 35.0954 8.27547C31.7908 8.68472 30.3372 13.8702 26.9411 12.5111C23.704 11.2155 25.789 4.86418 22.2162 3.90597C19.9579 3.30042 17.4689 6.47468 15.81 7.83089C14.0103 9.30234 11.3246 9.07646 9.81119 7.32652C8.39305 5.68668 8.50816 3.29049 10.0093 1.78459C10.1875 1.60579 10.2285 1.34915 10.1143 1.12622C9.94617 0.797986 9.73945 0.497677 9.4797 0.237413C9.28881 0.0462522 9.03489 -0.0335835 8.76494 0.0129443C8.49504 0.0595341 8.28478 0.219275 8.17313 0.46277ZM18.0935 19.0099C23.9905 18.8196 28.6968 17.7592 28.605 16.6416C28.5135 15.524 23.6587 14.7724 17.7616 14.9628C11.8645 15.153 7.15823 16.2135 7.24999 17.3311C7.34153 18.4486 12.1965 19.2003 18.0935 19.0099Z" fill="#3862AE"/>
<path fill-rule="evenodd" clip-rule="evenodd" d="M23.801 14.6504C25.098 15.8452 25.1535 17.8361 23.9248 19.0973C22.6959 20.3584 20.6484 20.4124 19.3514 19.2175C18.0543 18.0228 17.9989 16.0319 19.2277 14.7707C20.4565 13.5094 22.5039 13.4557 23.801 14.6504ZM23.3341 15.332C23.7374 15.7032 23.7545 16.322 23.3724 16.714C22.9907 17.1058 22.3544 17.1226 21.9513 16.7513C21.5483 16.3799 21.531 15.7613 21.9129 15.3694C22.2947 14.9774 22.931 14.9606 23.3341 15.332Z" fill="#3862AE"/>
<path d="M10.7175 6.58561C11.8099 7.84888 13.7488 8.01188 15.048 6.94967C16.3472 5.88746 16.5148 4.00228 15.4224 2.739C14.33 1.47572 12.3911 1.31273 11.0919 2.37494C9.79271 3.43715 9.62508 5.32233 10.7175 6.58561Z" fill="#3862AE"/>
<path d="M20.6399 31.5902C21.6927 32.8075 23.561 32.9646 24.8129 31.941C26.0649 30.9174 26.2265 29.1008 25.1738 27.8834C24.121 26.6661 22.2527 26.509 21.0008 27.5326C19.7488 28.5562 19.5872 30.3728 20.6399 31.5902Z" fill="#3862AE"/>
</svg>
