<svg width="231" height="240" viewBox="0 0 231 240" fill="none" xmlns="http://www.w3.org/2000/svg">
<path d="M126.907 18.6973C120.749 11.6104 109.746 11.6104 103.588 18.6972L88.2022 36.4054C85.9619 38.9839 82.5507 40.2255 79.177 39.6903L56.0081 36.015C46.7358 34.5441 38.3065 41.6171 38.1449 51.0039L37.7412 74.4591C37.6824 77.8744 35.8673 81.0182 32.939 82.7768L12.8281 94.854C4.77962 99.6874 2.86886 110.524 8.77883 117.818L23.5462 136.046C25.6965 138.7 26.3269 142.275 25.214 145.504L17.5713 167.683C14.5126 176.559 20.0144 186.088 29.2306 187.877L52.2594 192.348C55.6126 192.999 58.3934 195.332 59.6167 198.522L68.0183 220.424C71.3806 229.19 81.7206 232.953 89.9307 228.4L110.445 217.022C113.432 215.365 117.063 215.365 120.05 217.022L140.564 228.4C148.774 232.953 159.114 229.19 162.477 220.424L170.878 198.522C172.102 195.332 174.882 192.999 178.236 192.348L201.264 187.877C210.481 186.088 215.982 176.559 212.924 167.683L205.281 145.504C204.168 142.275 204.799 138.7 206.949 136.046L221.716 117.818C227.626 110.524 225.715 99.6874 217.667 94.854L197.556 82.7768C194.628 81.0182 192.813 77.8744 192.754 74.4592L192.35 51.004C192.189 41.6171 183.759 34.5441 174.487 36.015L151.318 39.6903C147.944 40.2255 144.533 38.9839 142.293 36.4054L126.907 18.6973Z" fill="#F4F1EA" stroke="#F4F1EA" stroke-width="5.54455"/>
<path d="M126.907 9.19225C120.749 2.10536 109.746 2.10535 103.588 9.19224L88.2022 26.9004C85.9619 29.4789 82.5507 30.7205 79.177 30.1853L56.0081 26.51C46.7358 25.0391 38.3065 32.1121 38.1449 41.4989L37.7412 64.9541C37.6824 68.3694 35.8673 71.5132 32.939 73.2718L12.8281 85.349C4.77962 90.1824 2.86886 101.019 8.77883 108.313L23.5462 126.541C25.6965 129.195 26.3269 132.77 25.214 135.999L17.5713 158.178C14.5126 167.054 20.0144 176.583 29.2306 178.372L52.2594 182.843C55.6126 183.494 58.3934 185.827 59.6167 189.017L68.0183 210.919C71.3806 219.685 81.7206 223.448 89.9307 218.895L110.445 207.517C113.432 205.86 117.063 205.86 120.05 207.517L140.564 218.895C148.774 223.448 159.114 219.685 162.477 210.919L170.878 189.017C172.102 185.827 174.882 183.494 178.236 182.843L201.264 178.372C210.481 176.583 215.982 167.054 212.924 158.178L205.281 135.999C204.168 132.77 204.799 129.195 206.949 126.541L221.716 108.313C227.626 101.019 225.715 90.1824 217.667 85.349L197.556 73.2718C194.628 71.5132 192.813 68.3694 192.754 64.9541L192.35 41.4989C192.189 32.1121 183.759 25.0391 174.487 26.51L151.318 30.1853C147.944 30.7205 144.533 29.4789 142.293 26.9004L126.907 9.19225Z" fill="#FFCC00" stroke="#F4F1EA" stroke-width="5.54455"/>
</svg>
