<svg width="1278" height="56" viewBox="0 0 1278 56" fill="none" xmlns="http://www.w3.org/2000/svg">
<rect width="63.9" height="18.8516" fill="#88BFE8"/>
<rect y="37.1485" width="63.9" height="18.8516" fill="#88BFE8"/>
<rect x="63.9001" y="18.8517" width="63.9" height="18.8516" fill="#88BFE8"/>
<rect x="127.8" width="63.9" height="18.8516" fill="#88BFE8"/>
<rect x="127.8" y="37.1485" width="63.9" height="18.8516" fill="#88BFE8"/>
<rect x="191.7" y="18.8517" width="63.9" height="18.8516" fill="#88BFE8"/>
<rect x="255.6" width="63.9" height="18.8516" fill="#88BFE8"/>
<rect x="255.6" y="37.1485" width="63.9" height="18.8516" fill="#88BFE8"/>
<rect x="319.5" y="18.8517" width="63.9" height="18.8516" fill="#88BFE8"/>
<rect x="383.4" width="63.9" height="18.8516" fill="#88BFE8"/>
<rect x="383.4" y="37.1485" width="63.9" height="18.8516" fill="#88BFE8"/>
<rect x="447.3" y="18.8517" width="63.9" height="18.8516" fill="#88BFE8"/>
<rect x="511.2" width="63.9" height="18.8516" fill="#88BFE8"/>
<rect x="511.2" y="37.1485" width="63.9" height="18.8516" fill="#88BFE8"/>
<rect x="575.1" y="18.8517" width="63.9" height="18.8516" fill="#88BFE8"/>
<rect x="639" width="63.9" height="18.8516" fill="#88BFE8"/>
<rect x="639" y="37.1485" width="63.9" height="18.8516" fill="#88BFE8"/>
<rect x="702.9" y="18.8517" width="63.9" height="18.8516" fill="#88BFE8"/>
<rect x="766.8" width="63.9" height="18.8516" fill="#88BFE8"/>
<rect x="766.8" y="37.1485" width="63.9" height="18.8516" fill="#88BFE8"/>
<rect x="830.7" y="18.8517" width="63.9" height="18.8516" fill="#88BFE8"/>
<rect x="894.6" width="63.9" height="18.8516" fill="#88BFE8"/>
<rect x="894.6" y="37.1485" width="63.9" height="18.8516" fill="#88BFE8"/>
<rect x="958.5" y="18.8517" width="63.9" height="18.8516" fill="#88BFE8"/>
<rect x="1022.4" width="63.9" height="18.8516" fill="#88BFE8"/>
<rect x="1022.4" y="37.1485" width="63.9" height="18.8516" fill="#88BFE8"/>
<rect x="1086.3" y="18.8517" width="63.9" height="18.8516" fill="#88BFE8"/>
<rect x="1150.2" width="63.9" height="18.8516" fill="#88BFE8"/>
<rect x="1150.2" y="37.1485" width="63.9" height="18.8516" fill="#88BFE8"/>
<rect x="1214.1" y="18.8517" width="63.9" height="18.8516" fill="#88BFE8"/>
</svg>
