<svg width="934" height="161" viewBox="0 0 934 161" fill="none" xmlns="http://www.w3.org/2000/svg">
<g filter="url(#filter0_d_359_462)">
<rect x="6.04999" y="49.9222" width="204.2" height="102.1" rx="34.0333" fill="white"/>
</g>
<path d="M44.9953 94.596C44.0877 94.596 43.2482 94.4316 42.4768 94.1026C41.7054 93.7736 41.0304 93.3141 40.4518 92.7242C39.8733 92.1343 39.4195 91.4423 39.0905 90.6482C38.7728 89.8541 38.614 88.9862 38.614 88.0446C38.614 87.103 38.7672 86.2352 39.0735 85.4411C39.3911 84.6356 39.8335 83.9436 40.4008 83.365C40.9793 82.7751 41.6543 82.3214 42.4258 82.0037C43.1972 81.6747 44.0367 81.5102 44.9442 81.5102C45.8518 81.5102 46.6629 81.6634 47.3776 81.9697C48.1036 82.276 48.7162 82.6844 49.2154 83.1949C49.7146 83.694 50.0719 84.2442 50.2875 84.8455L48.2284 85.8325C47.9902 85.1745 47.5875 84.6413 47.0203 84.2329C46.453 83.8245 45.761 83.6203 44.9442 83.6203C44.1501 83.6203 43.4468 83.8075 42.8342 84.1818C42.2329 84.5562 41.7621 85.0724 41.4218 85.7304C41.0928 86.3883 40.9283 87.1598 40.9283 88.0446C40.9283 88.9295 41.0985 89.7066 41.4388 90.3759C41.7905 91.0339 42.2726 91.5501 42.8852 91.9244C43.4978 92.2988 44.2012 92.486 44.9953 92.486C45.6419 92.486 46.2375 92.3612 46.782 92.1116C47.3266 91.8507 47.7633 91.4877 48.0923 91.0225C48.4213 90.5461 48.5858 89.9845 48.5858 89.3379V88.3679L49.6408 89.2868H44.9442V87.3299H50.9001V88.6062C50.9001 89.5818 50.7356 90.444 50.4066 91.1927C50.0776 91.9414 49.6295 92.5711 49.0623 93.0816C48.5064 93.5807 47.8768 93.9608 47.1734 94.2217C46.47 94.4713 45.744 94.596 44.9953 94.596ZM52.5442 94.3918V85.1348H54.6372V87.1938L54.467 86.8875C54.6826 86.1955 55.0172 85.7133 55.471 85.4411C55.9361 85.1688 56.492 85.0327 57.1387 85.0327H57.6832V87.0066H56.8834C56.2481 87.0066 55.7376 87.2051 55.3519 87.6022C54.9662 87.9879 54.7733 88.5324 54.7733 89.2358V94.3918H52.5442ZM61.7165 94.596C61.0699 94.596 60.5084 94.4883 60.0319 94.2727C59.5554 94.0572 59.1867 93.7509 58.9258 93.3538C58.6649 92.9454 58.5344 92.4746 58.5344 91.9414C58.5344 91.4309 58.6479 90.9772 58.8748 90.5801C59.1016 90.1717 59.4533 89.8314 59.9298 89.5591C60.4063 89.2868 61.0075 89.094 61.7336 88.9805L64.7625 88.4871V90.1887L62.159 90.6312C61.7165 90.7106 61.3875 90.8524 61.172 91.0566C60.9565 91.2608 60.8487 91.5274 60.8487 91.8564C60.8487 92.174 60.9678 92.4293 61.206 92.6221C61.4556 92.8036 61.7619 92.8944 62.1249 92.8944C62.5901 92.8944 62.9985 92.798 63.3501 92.6051C63.7132 92.4009 63.9911 92.123 64.184 91.7713C64.3882 91.4196 64.4903 91.0339 64.4903 90.6141V88.2318C64.4903 87.8348 64.3314 87.5058 64.0138 87.2448C63.7075 86.9726 63.2991 86.8364 62.7886 86.8364C62.3121 86.8364 61.8867 86.9669 61.5123 87.2278C61.1493 87.4774 60.8827 87.8121 60.7126 88.2318L58.8918 87.3469C59.0733 86.8591 59.3569 86.4394 59.7426 86.0877C60.1397 85.7247 60.6048 85.4411 61.138 85.2369C61.6712 85.0327 62.2497 84.9306 62.8737 84.9306C63.6337 84.9306 64.3031 85.0724 64.8816 85.356C65.4602 85.6283 65.9083 86.014 66.226 86.5131C66.5549 87.0009 66.7194 87.5738 66.7194 88.2318V94.3918H64.6094V92.8093L65.0858 92.7753C64.8476 93.1723 64.564 93.507 64.235 93.7792C63.906 94.0402 63.5316 94.2444 63.1119 94.3918C62.6922 94.528 62.227 94.596 61.7165 94.596ZM68.7798 94.3918V85.1348H70.8728V86.9556L70.7027 86.6322C70.9182 86.0764 71.2699 85.6566 71.7577 85.373C72.2569 85.0781 72.8354 84.9306 73.4934 84.9306C74.1741 84.9306 74.7753 85.0781 75.2972 85.373C75.8304 85.668 76.2444 86.082 76.5394 86.6152C76.8343 87.1371 76.9818 87.744 76.9818 88.436V94.3918H74.7526V88.9635C74.7526 88.5551 74.6732 88.2035 74.5144 87.9085C74.3556 87.6135 74.1344 87.3867 73.8507 87.2278C73.5785 87.0577 73.2552 86.9726 72.8808 86.9726C72.5178 86.9726 72.1945 87.0577 71.9108 87.2278C71.6272 87.3867 71.406 87.6135 71.2472 87.9085C71.0884 88.2035 71.009 88.5551 71.009 88.9635V94.3918H68.7798ZM83.172 94.596C82.2758 94.596 81.476 94.3862 80.7727 93.9664C80.0693 93.5353 79.5134 92.9511 79.105 92.2137C78.6966 91.4763 78.4924 90.6595 78.4924 89.7633C78.4924 88.8558 78.6966 88.039 79.105 87.3129C79.5134 86.5869 80.0693 86.0083 80.7727 85.5772C81.4874 85.1461 82.2815 84.9306 83.155 84.9306C83.8584 84.9306 84.4823 85.0724 85.0268 85.356C85.5827 85.6283 86.0195 86.014 86.3371 86.5131L85.9968 86.9726V81.5102H88.226V94.3918H86.1159V92.6051L86.3541 93.0475C86.0365 93.5467 85.5941 93.9324 85.0268 94.2047C84.4596 94.4656 83.8413 94.596 83.172 94.596ZM83.4103 92.554C83.9208 92.554 84.3689 92.4349 84.7546 92.1967C85.1403 91.9585 85.4409 91.6295 85.6565 91.2097C85.8833 90.79 85.9968 90.3078 85.9968 89.7633C85.9968 89.2301 85.8833 88.7537 85.6565 88.3339C85.4409 87.9028 85.1403 87.5682 84.7546 87.3299C84.3689 87.0917 83.9208 86.9726 83.4103 86.9726C82.9111 86.9726 82.463 87.0974 82.0659 87.3469C81.6689 87.5852 81.3569 87.9142 81.13 88.3339C80.9145 88.7423 80.8067 89.2188 80.8067 89.7633C80.8067 90.3078 80.9145 90.79 81.13 91.2097C81.3569 91.6295 81.6689 91.9585 82.0659 92.1967C82.463 92.4349 82.9111 92.554 83.4103 92.554ZM93.5115 94.3918V81.7144H95.8258V92.3498H101.254V94.3918H93.5115ZM105.372 94.596C104.725 94.596 104.163 94.4883 103.687 94.2727C103.21 94.0572 102.842 93.7509 102.581 93.3538C102.32 92.9454 102.189 92.4746 102.189 91.9414C102.189 91.4309 102.303 90.9772 102.53 90.5801C102.757 90.1717 103.108 89.8314 103.585 89.5591C104.061 89.2868 104.663 89.094 105.389 88.9805L108.418 88.4871V90.1887L105.814 90.6312C105.372 90.7106 105.043 90.8524 104.827 91.0566C104.612 91.2608 104.504 91.5274 104.504 91.8564C104.504 92.174 104.623 92.4293 104.861 92.6221C105.111 92.8036 105.417 92.8944 105.78 92.8944C106.245 92.8944 106.654 92.798 107.005 92.6051C107.368 92.4009 107.646 92.123 107.839 91.7713C108.043 91.4196 108.145 91.0339 108.145 90.6141V88.2318C108.145 87.8348 107.986 87.5058 107.669 87.2448C107.363 86.9726 106.954 86.8364 106.444 86.8364C105.967 86.8364 105.542 86.9669 105.167 87.2278C104.804 87.4774 104.538 87.8121 104.368 88.2318L102.547 87.3469C102.728 86.8591 103.012 86.4394 103.398 86.0877C103.795 85.7247 104.26 85.4411 104.793 85.2369C105.326 85.0327 105.905 84.9306 106.529 84.9306C107.289 84.9306 107.958 85.0724 108.537 85.356C109.115 85.6283 109.563 86.014 109.881 86.5131C110.21 87.0009 110.374 87.5738 110.374 88.2318V94.3918H108.264V92.8093L108.741 92.7753C108.503 93.1723 108.219 93.507 107.89 93.7792C107.561 94.0402 107.187 94.2444 106.767 94.3918C106.347 94.528 105.882 94.596 105.372 94.596ZM115.736 94.596C115.021 94.596 114.397 94.4372 113.864 94.1196C113.342 93.8019 112.94 93.3595 112.656 92.7923C112.384 92.2251 112.248 91.5614 112.248 90.8013V85.1348H114.477V90.6141C114.477 90.9999 114.551 91.3402 114.698 91.6351C114.857 91.9188 115.078 92.1456 115.362 92.3158C115.657 92.4746 115.986 92.554 116.349 92.554C116.712 92.554 117.035 92.4746 117.319 92.3158C117.602 92.1456 117.823 91.9131 117.982 91.6181C118.141 91.3232 118.221 90.9715 118.221 90.5631V85.1348H120.45V94.3918H118.34V92.5711L118.527 92.8944C118.311 93.4616 117.954 93.887 117.455 94.1706C116.967 94.4542 116.394 94.596 115.736 94.596ZM122.522 94.3918V85.1348H124.615V86.9556L124.445 86.6322C124.66 86.0764 125.012 85.6566 125.5 85.373C125.999 85.0781 126.578 84.9306 127.235 84.9306C127.916 84.9306 128.517 85.0781 129.039 85.373C129.572 85.668 129.987 86.082 130.281 86.6152C130.576 87.1371 130.724 87.744 130.724 88.436V94.3918H128.495V88.9635C128.495 88.5551 128.415 88.2035 128.256 87.9085C128.098 87.6135 127.876 87.3867 127.593 87.2278C127.321 87.0577 126.997 86.9726 126.623 86.9726C126.26 86.9726 125.937 87.0577 125.653 87.2278C125.369 87.3867 125.148 87.6135 124.989 87.9085C124.83 88.2035 124.751 88.5551 124.751 88.9635V94.3918H122.522ZM137.067 94.596C136.148 94.596 135.32 94.3862 134.583 93.9664C133.857 93.5353 133.284 92.9568 132.864 92.2307C132.444 91.4933 132.235 90.6652 132.235 89.7463C132.235 88.8274 132.444 88.0049 132.864 87.2789C133.284 86.5528 133.857 85.9799 134.583 85.5602C135.32 85.1405 136.148 84.9306 137.067 84.9306C137.725 84.9306 138.338 85.0497 138.905 85.2879C139.472 85.5148 139.96 85.8325 140.368 86.2409C140.788 86.6379 141.089 87.1144 141.27 87.6703L139.313 88.5211C139.143 88.056 138.854 87.6816 138.446 87.398C138.049 87.1144 137.589 86.9726 137.067 86.9726C136.579 86.9726 136.143 87.0917 135.757 87.3299C135.383 87.5682 135.088 87.8972 134.872 88.3169C134.657 88.7366 134.549 89.2188 134.549 89.7633C134.549 90.3078 134.657 90.79 134.872 91.2097C135.088 91.6295 135.383 91.9585 135.757 92.1967C136.143 92.4349 136.579 92.554 137.067 92.554C137.6 92.554 138.066 92.4122 138.463 92.1286C138.86 91.845 139.143 91.465 139.313 90.9885L141.27 91.8734C141.089 92.3952 140.794 92.866 140.386 93.2858C139.977 93.6942 139.489 94.0175 138.922 94.2557C138.355 94.4826 137.737 94.596 137.067 94.596ZM142.962 94.3918V81.5102H145.191V86.9556L144.885 86.6322C145.1 86.0764 145.452 85.6566 145.94 85.373C146.439 85.0781 147.017 84.9306 147.675 84.9306C148.356 84.9306 148.957 85.0781 149.479 85.373C150.012 85.668 150.426 86.082 150.721 86.6152C151.016 87.1371 151.164 87.744 151.164 88.436V94.3918H148.935V88.9635C148.935 88.5551 148.855 88.2035 148.696 87.9085C148.538 87.6135 148.316 87.3867 148.033 87.2278C147.761 87.0577 147.437 86.9726 147.063 86.9726C146.7 86.9726 146.376 87.0577 146.093 87.2278C145.809 87.3867 145.588 87.6135 145.429 87.9085C145.27 88.2035 145.191 88.5551 145.191 88.9635V94.3918H142.962ZM153.049 94.3918V85.1348H155.278V94.3918H153.049ZM153.049 84.0968V81.7144H155.278V84.0968H153.049ZM157.336 94.3918V85.1348H159.429V86.9556L159.259 86.6322C159.475 86.0764 159.826 85.6566 160.314 85.373C160.813 85.0781 161.392 84.9306 162.05 84.9306C162.731 84.9306 163.332 85.0781 163.854 85.373C164.387 85.668 164.801 86.082 165.096 86.6152C165.391 87.1371 165.538 87.744 165.538 88.436V94.3918H163.309V88.9635C163.309 88.5551 163.23 88.2035 163.071 87.9085C162.912 87.6135 162.691 87.3867 162.407 87.2278C162.135 87.0577 161.812 86.9726 161.437 86.9726C161.074 86.9726 160.751 87.0577 160.467 87.2278C160.184 87.3867 159.962 87.6135 159.804 87.9085C159.645 88.2035 159.565 88.5551 159.565 88.9635V94.3918H157.336ZM171.916 98.1355C171.224 98.1355 170.583 98.0221 169.993 97.7952C169.403 97.5683 168.892 97.2506 168.461 96.8422C168.042 96.4452 167.735 95.9744 167.542 95.4299L169.618 94.6471C169.755 95.0782 170.021 95.4242 170.418 95.6851C170.827 95.9574 171.326 96.0935 171.916 96.0935C172.369 96.0935 172.767 96.0084 173.107 95.8383C173.459 95.6681 173.731 95.4185 173.924 95.0895C174.116 94.7719 174.213 94.3862 174.213 93.9324V91.8223L174.638 92.3328C174.321 92.8887 173.895 93.3085 173.362 93.5921C172.829 93.8757 172.222 94.0175 171.541 94.0175C170.679 94.0175 169.908 93.819 169.227 93.4219C168.546 93.0248 168.013 92.4803 167.627 91.7883C167.242 91.0963 167.049 90.3192 167.049 89.457C167.049 88.5835 167.242 87.8064 167.627 87.1257C168.013 86.4451 168.541 85.9119 169.21 85.5262C169.879 85.1291 170.639 84.9306 171.49 84.9306C172.182 84.9306 172.789 85.0781 173.311 85.373C173.844 85.6566 174.287 86.0707 174.638 86.6152L174.332 87.1768V85.1348H176.442V93.9324C176.442 94.7379 176.244 95.4582 175.847 96.0935C175.461 96.7288 174.928 97.228 174.247 97.591C173.578 97.954 172.801 98.1355 171.916 98.1355ZM171.814 91.9585C172.29 91.9585 172.704 91.8564 173.056 91.6522C173.419 91.4366 173.702 91.1417 173.907 90.7673C174.111 90.3929 174.213 89.9618 174.213 89.474C174.213 88.9976 174.105 88.5721 173.89 88.1978C173.685 87.8121 173.402 87.5114 173.039 87.2959C172.687 87.0804 172.279 86.9726 171.814 86.9726C171.348 86.9726 170.929 87.0804 170.554 87.2959C170.18 87.5114 169.885 87.8121 169.669 88.1978C169.465 88.5721 169.363 88.9976 169.363 89.474C169.363 89.9505 169.465 90.3759 169.669 90.7503C169.885 91.1246 170.174 91.4196 170.537 91.6351C170.912 91.8507 171.337 91.9585 171.814 91.9585Z" fill="black"/>
<path d="M56.9764 121.602V112.821H55.0297V111.46H58.5691V121.602H56.9764ZM61.4225 121.602L64.8939 117.109L65.1662 117.286C65.0391 117.423 64.8984 117.531 64.7442 117.613C64.599 117.695 64.4401 117.754 64.2677 117.79C64.1043 117.826 63.9274 117.845 63.7368 117.845C63.1287 117.845 62.5842 117.708 62.1032 117.436C61.6222 117.155 61.241 116.774 60.9597 116.293C60.6874 115.803 60.5513 115.249 60.5513 114.632C60.5513 113.987 60.701 113.416 61.0005 112.917C61.3 112.417 61.7084 112.023 62.2257 111.732C62.743 111.442 63.3329 111.297 63.9954 111.297C64.667 111.297 65.2569 111.442 65.7652 111.732C66.2825 112.023 66.6863 112.422 66.9768 112.93C67.2762 113.429 67.426 114.001 67.426 114.645C67.426 114.99 67.3897 115.331 67.3171 115.666C67.2445 116.002 67.1174 116.352 66.9359 116.715C66.7544 117.069 66.5003 117.459 66.1736 117.885L63.342 121.602H61.4225ZM63.9954 116.497C64.3494 116.497 64.6625 116.415 64.9348 116.252C65.207 116.088 65.4248 115.866 65.5882 115.585C65.7516 115.303 65.8332 114.981 65.8332 114.618C65.8332 114.246 65.7516 113.919 65.5882 113.638C65.4248 113.348 65.2025 113.125 64.9211 112.971C64.6489 112.808 64.3403 112.726 63.9954 112.726C63.6506 112.726 63.3375 112.808 63.0561 112.971C62.7838 113.125 62.566 113.348 62.4027 113.638C62.2393 113.919 62.1576 114.246 62.1576 114.618C62.1576 114.981 62.2348 115.303 62.3891 115.585C62.5524 115.866 62.7748 116.088 63.0561 116.252C63.3375 116.415 63.6506 116.497 63.9954 116.497ZM70.6168 121.602L74.1835 111.46H76.1711L79.7378 121.602H78.0225L77.2465 119.328H73.1217L72.3321 121.602H70.6168ZM73.5845 117.899H76.7564L74.9595 112.59H75.4087L73.5845 117.899ZM84.0784 124.597C83.5429 124.597 83.0483 124.511 82.5945 124.338C82.1408 124.166 81.7505 123.925 81.4238 123.617C81.0971 123.317 80.852 122.963 80.6887 122.555L82.1045 121.969C82.2315 122.314 82.4629 122.6 82.7987 122.827C83.1436 123.054 83.5656 123.167 84.0648 123.167C84.455 123.167 84.8044 123.09 85.113 122.936C85.4216 122.791 85.6666 122.573 85.8481 122.283C86.0296 122.001 86.1204 121.661 86.1204 121.262V119.601L86.3927 119.914C86.1385 120.386 85.7846 120.744 85.3308 120.989C84.8861 121.234 84.3824 121.357 83.8197 121.357C83.1391 121.357 82.5265 121.198 81.9819 120.88C81.4374 120.563 81.0063 120.127 80.6887 119.573C80.3801 119.02 80.2258 118.398 80.2258 117.708C80.2258 117.01 80.3801 116.388 80.6887 115.843C81.0063 115.299 81.4329 114.868 81.9683 114.55C82.5038 114.233 83.1164 114.074 83.8061 114.074C84.3688 114.074 84.868 114.196 85.3036 114.441C85.7483 114.677 86.1113 115.022 86.3927 115.476L86.1885 115.857V114.237H87.6451V121.262C87.6451 121.897 87.4908 122.464 87.1822 122.963C86.8827 123.471 86.4653 123.871 85.9298 124.161C85.3944 124.452 84.7772 124.597 84.0784 124.597ZM83.9967 119.927C84.4051 119.927 84.7681 119.832 85.0858 119.642C85.4034 119.442 85.653 119.179 85.8345 118.852C86.0251 118.516 86.1204 118.14 86.1204 117.722C86.1204 117.305 86.0251 116.928 85.8345 116.592C85.6439 116.256 85.3898 115.993 85.0722 115.803C84.7545 115.603 84.396 115.503 83.9967 115.503C83.5792 115.503 83.2071 115.603 82.8804 115.803C82.5537 115.993 82.295 116.256 82.1045 116.592C81.923 116.919 81.8322 117.296 81.8322 117.722C81.8322 118.13 81.923 118.503 82.1045 118.838C82.295 119.174 82.5537 119.442 82.8804 119.642C83.2071 119.832 83.5792 119.927 83.9967 119.927ZM92.0731 121.765C91.5195 121.765 91.034 121.643 90.6165 121.398C90.199 121.144 89.8723 120.794 89.6364 120.349C89.4095 119.896 89.296 119.374 89.296 118.784V114.237H90.8343V118.648C90.8343 118.984 90.9024 119.279 91.0385 119.533C91.1747 119.787 91.3653 119.986 91.6103 120.132C91.8553 120.268 92.1367 120.336 92.4543 120.336C92.781 120.336 93.0669 120.263 93.312 120.118C93.557 119.973 93.7476 119.769 93.8837 119.505C94.0289 119.242 94.1015 118.934 94.1015 118.58V114.237H95.6262V121.602H94.1696V120.159L94.333 120.349C94.1605 120.803 93.8746 121.153 93.4753 121.398C93.076 121.643 92.6086 121.765 92.0731 121.765ZM100.145 121.765C99.3917 121.765 98.7292 121.579 98.1575 121.207C97.5948 120.835 97.2 120.336 96.9731 119.71L98.1575 119.151C98.3571 119.569 98.6294 119.9 98.9743 120.145C99.3282 120.39 99.7184 120.513 100.145 120.513C100.508 120.513 100.803 120.431 101.03 120.268C101.257 120.104 101.37 119.882 101.37 119.601C101.37 119.419 101.32 119.274 101.22 119.165C101.121 119.047 100.994 118.952 100.839 118.879C100.694 118.807 100.544 118.752 100.39 118.716L99.2329 118.389C98.5976 118.208 98.1212 117.935 97.8035 117.572C97.4949 117.2 97.3407 116.769 97.3407 116.279C97.3407 115.834 97.4541 115.449 97.681 115.122C97.9079 114.786 98.221 114.527 98.6203 114.346C99.0196 114.164 99.4689 114.074 99.968 114.074C100.64 114.074 101.239 114.242 101.765 114.577C102.291 114.904 102.663 115.362 102.881 115.952L101.697 116.51C101.552 116.157 101.32 115.875 101.003 115.666C100.694 115.458 100.345 115.353 99.9544 115.353C99.6186 115.353 99.3509 115.435 99.1512 115.598C98.9516 115.753 98.8517 115.957 98.8517 116.211C98.8517 116.383 98.8971 116.529 98.9879 116.647C99.0786 116.756 99.1966 116.846 99.3418 116.919C99.487 116.982 99.6368 117.037 99.7911 117.082L100.989 117.436C101.597 117.609 102.064 117.881 102.391 118.253C102.718 118.616 102.881 119.052 102.881 119.56C102.881 119.995 102.763 120.381 102.527 120.717C102.3 121.044 101.983 121.302 101.574 121.493C101.166 121.674 100.69 121.765 100.145 121.765ZM107.574 121.684C106.803 121.684 106.204 121.466 105.777 121.03C105.351 120.594 105.137 119.982 105.137 119.192V115.626H103.844V114.237H104.048C104.393 114.237 104.661 114.137 104.851 113.938C105.042 113.738 105.137 113.466 105.137 113.121V112.549H106.676V114.237H108.35V115.626H106.676V119.124C106.676 119.378 106.716 119.596 106.798 119.778C106.88 119.95 107.011 120.086 107.193 120.186C107.374 120.277 107.61 120.322 107.901 120.322C107.973 120.322 108.055 120.318 108.146 120.309C108.237 120.3 108.323 120.29 108.404 120.281V121.602C108.277 121.62 108.137 121.638 107.982 121.656C107.828 121.674 107.692 121.684 107.574 121.684ZM112.533 121.765C111.979 121.765 111.494 121.643 111.076 121.398C110.659 121.144 110.332 120.794 110.096 120.349C109.869 119.896 109.756 119.374 109.756 118.784V114.237H111.294V118.648C111.294 118.984 111.362 119.279 111.498 119.533C111.635 119.787 111.825 119.986 112.07 120.132C112.315 120.268 112.597 120.336 112.914 120.336C113.241 120.336 113.527 120.263 113.772 120.118C114.017 119.973 114.207 119.769 114.344 119.505C114.489 119.242 114.561 118.934 114.561 118.58V114.237H116.086V121.602H114.629V120.159L114.793 120.349C114.62 120.803 114.335 121.153 113.935 121.398C113.536 121.643 113.068 121.765 112.533 121.765ZM120.605 121.765C119.852 121.765 119.189 121.579 118.617 121.207C118.055 120.835 117.66 120.336 117.433 119.71L118.617 119.151C118.817 119.569 119.089 119.9 119.434 120.145C119.788 120.39 120.178 120.513 120.605 120.513C120.968 120.513 121.263 120.431 121.49 120.268C121.717 120.104 121.83 119.882 121.83 119.601C121.83 119.419 121.78 119.274 121.68 119.165C121.581 119.047 121.453 118.952 121.299 118.879C121.154 118.807 121.004 118.752 120.85 118.716L119.693 118.389C119.058 118.208 118.581 117.935 118.263 117.572C117.955 117.2 117.801 116.769 117.801 116.279C117.801 115.834 117.914 115.449 118.141 115.122C118.368 114.786 118.681 114.527 119.08 114.346C119.48 114.164 119.929 114.074 120.428 114.074C121.1 114.074 121.698 114.242 122.225 114.577C122.751 114.904 123.123 115.362 123.341 115.952L122.157 116.51C122.012 116.157 121.78 115.875 121.463 115.666C121.154 115.458 120.805 115.353 120.414 115.353C120.079 115.353 119.811 115.435 119.611 115.598C119.411 115.753 119.312 115.957 119.312 116.211C119.312 116.383 119.357 116.529 119.448 116.647C119.539 116.756 119.656 116.846 119.802 116.919C119.947 116.982 120.097 117.037 120.251 117.082L121.449 117.436C122.057 117.609 122.524 117.881 122.851 118.253C123.178 118.616 123.341 119.052 123.341 119.56C123.341 119.995 123.223 120.381 122.987 120.717C122.76 121.044 122.443 121.302 122.034 121.493C121.626 121.674 121.149 121.765 120.605 121.765ZM127.01 121.602V120.445L129.787 117.477C130.332 116.896 130.758 116.429 131.067 116.075C131.385 115.712 131.612 115.394 131.748 115.122C131.893 114.85 131.966 114.564 131.966 114.264C131.966 113.774 131.816 113.398 131.516 113.134C131.217 112.862 130.831 112.726 130.359 112.726C129.869 112.726 129.447 112.867 129.093 113.148C128.739 113.42 128.494 113.82 128.358 114.346L126.942 113.938C127.051 113.402 127.269 112.939 127.596 112.549C127.922 112.15 128.322 111.841 128.794 111.623C129.275 111.405 129.792 111.297 130.346 111.297C130.99 111.297 131.553 111.419 132.034 111.664C132.515 111.9 132.887 112.231 133.15 112.658C133.422 113.084 133.558 113.579 133.558 114.142C133.558 114.514 133.486 114.877 133.34 115.231C133.204 115.576 132.991 115.943 132.701 116.334C132.41 116.715 132.038 117.146 131.584 117.627L129.134 120.241H133.749V121.602H127.01ZM139.353 121.765C138.545 121.765 137.837 121.547 137.229 121.112C136.621 120.667 136.145 120.054 135.8 119.274C135.464 118.484 135.296 117.568 135.296 116.524C135.296 115.471 135.464 114.555 135.8 113.774C136.145 112.994 136.617 112.386 137.216 111.95C137.824 111.514 138.532 111.297 139.339 111.297C140.147 111.297 140.85 111.514 141.449 111.95C142.057 112.386 142.529 112.998 142.865 113.788C143.21 114.568 143.382 115.48 143.382 116.524C143.382 117.568 143.215 118.484 142.879 119.274C142.543 120.054 142.071 120.667 141.463 121.112C140.864 121.547 140.161 121.765 139.353 121.765ZM139.353 120.295C139.852 120.295 140.283 120.141 140.646 119.832C141.009 119.524 141.291 119.088 141.49 118.525C141.69 117.963 141.79 117.296 141.79 116.524C141.79 115.753 141.69 115.086 141.49 114.523C141.291 113.96 141.009 113.525 140.646 113.216C140.283 112.907 139.848 112.753 139.339 112.753C138.84 112.753 138.409 112.907 138.046 113.216C137.683 113.525 137.402 113.96 137.202 114.523C137.002 115.086 136.902 115.753 136.902 116.524C136.902 117.286 137.002 117.953 137.202 118.525C137.402 119.088 137.683 119.524 138.046 119.832C138.418 120.141 138.854 120.295 139.353 120.295ZM144.891 121.602V120.445L147.668 117.477C148.213 116.896 148.639 116.429 148.948 116.075C149.265 115.712 149.492 115.394 149.629 115.122C149.774 114.85 149.846 114.564 149.846 114.264C149.846 113.774 149.697 113.398 149.397 113.134C149.098 112.862 148.712 112.726 148.24 112.726C147.75 112.726 147.328 112.867 146.974 113.148C146.62 113.42 146.375 113.82 146.239 114.346L144.823 113.938C144.932 113.402 145.15 112.939 145.476 112.549C145.803 112.15 146.202 111.841 146.674 111.623C147.155 111.405 147.673 111.297 148.226 111.297C148.871 111.297 149.433 111.419 149.914 111.664C150.395 111.9 150.767 112.231 151.031 112.658C151.303 113.084 151.439 113.579 151.439 114.142C151.439 114.514 151.366 114.877 151.221 115.231C151.085 115.576 150.872 115.943 150.581 116.334C150.291 116.715 149.919 117.146 149.465 117.627L147.015 120.241H151.63V121.602H144.891ZM156.335 121.765C155.791 121.765 155.278 121.665 154.797 121.466C154.325 121.266 153.917 120.985 153.572 120.622C153.236 120.259 152.995 119.832 152.85 119.342L154.212 118.825C154.393 119.306 154.67 119.678 155.042 119.941C155.414 120.204 155.845 120.336 156.335 120.336C156.735 120.336 157.079 120.259 157.37 120.104C157.669 119.95 157.901 119.732 158.064 119.451C158.237 119.17 158.323 118.829 158.323 118.43C158.323 118.04 158.237 117.704 158.064 117.423C157.901 117.141 157.669 116.928 157.37 116.783C157.079 116.638 156.735 116.565 156.335 116.565C156.172 116.565 156.004 116.579 155.832 116.606C155.668 116.633 155.523 116.669 155.396 116.715L155.042 115.966L157.71 112.821H153.395V111.46H159.507V112.753L156.893 115.884L156.853 115.367C157.461 115.376 157.996 115.512 158.459 115.775C158.922 116.029 159.28 116.383 159.534 116.837C159.798 117.282 159.929 117.799 159.929 118.389C159.929 119.024 159.775 119.601 159.466 120.118C159.158 120.626 158.731 121.03 158.187 121.33C157.651 121.62 157.034 121.765 156.335 121.765Z" fill="black"/>
<g filter="url(#filter1_d_359_462)">
<rect x="720.75" y="49.9222" width="204.2" height="102.1" rx="34.0333" fill="white"/>
</g>
<path d="M770.904 94.596C769.996 94.596 769.157 94.4316 768.386 94.1026C767.614 93.7736 766.939 93.3141 766.361 92.7242C765.782 92.1343 765.328 91.4423 764.999 90.6482C764.682 89.8541 764.523 88.9862 764.523 88.0446C764.523 87.103 764.676 86.2352 764.982 85.4411C765.3 84.6356 765.742 83.9436 766.31 83.365C766.888 82.7751 767.563 82.3214 768.335 82.0037C769.106 81.6747 769.945 81.5102 770.853 81.5102C771.761 81.5102 772.572 81.6634 773.286 81.9697C774.012 82.276 774.625 82.6844 775.124 83.1949C775.623 83.694 775.981 84.2442 776.196 84.8455L774.137 85.8325C773.899 85.1745 773.496 84.6413 772.929 84.2329C772.362 83.8245 771.67 83.6203 770.853 83.6203C770.059 83.6203 769.356 83.8075 768.743 84.1818C768.142 84.5562 767.671 85.0724 767.331 85.7304C767.002 86.3883 766.837 87.1598 766.837 88.0446C766.837 88.9295 767.007 89.7066 767.348 90.3759C767.699 91.0339 768.181 91.5501 768.794 91.9244C769.407 92.2988 770.11 92.486 770.904 92.486C771.551 92.486 772.146 92.3612 772.691 92.1116C773.235 91.8507 773.672 91.4877 774.001 91.0225C774.33 90.5461 774.495 89.9845 774.495 89.3379V88.3679L775.55 89.2868H770.853V87.3299H776.809V88.6062C776.809 89.5818 776.644 90.444 776.315 91.1927C775.986 91.9414 775.538 92.5711 774.971 93.0816C774.415 93.5807 773.786 93.9608 773.082 94.2217C772.379 94.4713 771.653 94.596 770.904 94.596ZM778.453 94.3918V85.1348H780.546V87.1938L780.376 86.8875C780.591 86.1955 780.926 85.7133 781.38 85.4411C781.845 85.1688 782.401 85.0327 783.047 85.0327H783.592V87.0066H782.792C782.157 87.0066 781.646 87.2051 781.261 87.6022C780.875 87.9879 780.682 88.5324 780.682 89.2358V94.3918H778.453ZM787.625 94.596C786.979 94.596 786.417 94.4883 785.941 94.2727C785.464 94.0572 785.095 93.7509 784.835 93.3538C784.574 92.9454 784.443 92.4746 784.443 91.9414C784.443 91.4309 784.557 90.9772 784.784 90.5801C785.01 90.1717 785.362 89.8314 785.839 89.5591C786.315 89.2868 786.916 89.094 787.642 88.9805L790.671 88.4871V90.1887L788.068 90.6312C787.625 90.7106 787.296 90.8524 787.081 91.0566C786.865 91.2608 786.757 91.5274 786.757 91.8564C786.757 92.174 786.877 92.4293 787.115 92.6221C787.364 92.8036 787.671 92.8944 788.034 92.8944C788.499 92.8944 788.907 92.798 789.259 92.6051C789.622 92.4009 789.9 92.123 790.093 91.7713C790.297 91.4196 790.399 91.0339 790.399 90.6141V88.2318C790.399 87.8348 790.24 87.5058 789.923 87.2448C789.616 86.9726 789.208 86.8364 788.697 86.8364C788.221 86.8364 787.795 86.9669 787.421 87.2278C787.058 87.4774 786.791 87.8121 786.621 88.2318L784.801 87.3469C784.982 86.8591 785.266 86.4394 785.651 86.0877C786.048 85.7247 786.514 85.4411 787.047 85.2369C787.58 85.0327 788.158 84.9306 788.782 84.9306C789.543 84.9306 790.212 85.0724 790.79 85.356C791.369 85.6283 791.817 86.014 792.135 86.5131C792.464 87.0009 792.628 87.5738 792.628 88.2318V94.3918H790.518V92.8093L790.995 92.7753C790.756 93.1723 790.473 93.507 790.144 93.7792C789.815 94.0402 789.44 94.2444 789.021 94.3918C788.601 94.528 788.136 94.596 787.625 94.596ZM794.689 94.3918V85.1348H796.782V86.9556L796.611 86.6322C796.827 86.0764 797.179 85.6566 797.666 85.373C798.166 85.0781 798.744 84.9306 799.402 84.9306C800.083 84.9306 800.684 85.0781 801.206 85.373C801.739 85.668 802.153 86.082 802.448 86.6152C802.743 87.1371 802.891 87.744 802.891 88.436V94.3918H800.661V88.9635C800.661 88.5551 800.582 88.2035 800.423 87.9085C800.264 87.6135 800.043 87.3867 799.76 87.2278C799.487 87.0577 799.164 86.9726 798.79 86.9726C798.427 86.9726 798.103 87.0577 797.82 87.2278C797.536 87.3867 797.315 87.6135 797.156 87.9085C796.997 88.2035 796.918 88.5551 796.918 88.9635V94.3918H794.689ZM809.081 94.596C808.185 94.596 807.385 94.3862 806.681 93.9664C805.978 93.5353 805.422 92.9511 805.014 92.2137C804.605 91.4763 804.401 90.6595 804.401 89.7633C804.401 88.8558 804.605 88.039 805.014 87.3129C805.422 86.5869 805.978 86.0083 806.681 85.5772C807.396 85.1461 808.19 84.9306 809.064 84.9306C809.767 84.9306 810.391 85.0724 810.936 85.356C811.491 85.6283 811.928 86.014 812.246 86.5131L811.906 86.9726V81.5102H814.135V94.3918H812.025V92.6051L812.263 93.0475C811.945 93.5467 811.503 93.9324 810.936 94.2047C810.368 94.4656 809.75 94.596 809.081 94.596ZM809.319 92.554C809.83 92.554 810.278 92.4349 810.663 92.1967C811.049 91.9585 811.35 91.6295 811.565 91.2097C811.792 90.79 811.906 90.3078 811.906 89.7633C811.906 89.2301 811.792 88.7537 811.565 88.3339C811.35 87.9028 811.049 87.5682 810.663 87.3299C810.278 87.0917 809.83 86.9726 809.319 86.9726C808.82 86.9726 808.372 87.0974 807.975 87.3469C807.578 87.5852 807.266 87.9142 807.039 88.3339C806.823 88.7423 806.715 89.2188 806.715 89.7633C806.715 90.3078 806.823 90.79 807.039 91.2097C807.266 91.6295 807.578 91.9585 807.975 92.1967C808.372 92.4349 808.82 92.554 809.319 92.554ZM825.376 94.596C824.469 94.596 823.629 94.4316 822.858 94.1026C822.098 93.7736 821.428 93.3141 820.85 92.7242C820.282 92.1343 819.84 91.4423 819.522 90.6482C819.205 89.8541 819.046 88.9862 819.046 88.0446C819.046 87.103 819.199 86.2352 819.505 85.4411C819.823 84.6356 820.265 83.9436 820.833 83.365C821.411 82.7751 822.086 82.3214 822.858 82.0037C823.629 81.6747 824.469 81.5102 825.376 81.5102C826.284 81.5102 827.095 81.6634 827.81 81.9697C828.536 82.276 829.148 82.6844 829.647 83.1949C830.146 83.694 830.504 84.2442 830.719 84.8455L828.643 85.8154C828.405 85.1802 828.002 84.6583 827.435 84.2499C826.868 83.8302 826.182 83.6203 825.376 83.6203C824.582 83.6203 823.879 83.8075 823.266 84.1818C822.665 84.5562 822.194 85.0724 821.854 85.7304C821.525 86.3883 821.36 87.1598 821.36 88.0446C821.36 88.9295 821.525 89.7066 821.854 90.3759C822.194 91.0339 822.665 91.5501 823.266 91.9244C823.879 92.2988 824.582 92.486 825.376 92.486C826.182 92.486 826.868 92.2818 827.435 91.8734C828.002 91.4536 828.405 90.9261 828.643 90.2908L830.719 91.2608C830.504 91.862 830.146 92.4179 829.647 92.9284C829.148 93.4276 828.536 93.8303 827.81 94.1366C827.095 94.4429 826.284 94.596 825.376 94.596ZM832.411 94.3918V81.5102H834.64V94.3918H832.411ZM841.225 94.596C840.317 94.596 839.489 94.3862 838.74 93.9664C838.003 93.5467 837.413 92.9738 836.971 92.2477C836.54 91.5217 836.324 90.6936 836.324 89.7633C836.324 88.8331 836.54 88.0049 836.971 87.2789C837.413 86.5528 838.003 85.9799 838.74 85.5602C839.478 85.1405 840.306 84.9306 841.225 84.9306C842.132 84.9306 842.955 85.1405 843.692 85.5602C844.43 85.9799 845.014 86.5528 845.445 87.2789C845.887 87.9936 846.109 88.8217 846.109 89.7633C846.109 90.6936 845.887 91.5217 845.445 92.2477C845.003 92.9738 844.413 93.5467 843.675 93.9664C842.938 94.3862 842.121 94.596 841.225 94.596ZM841.225 92.554C841.724 92.554 842.161 92.4349 842.535 92.1967C842.921 91.9585 843.222 91.6295 843.437 91.2097C843.664 90.7786 843.777 90.2965 843.777 89.7633C843.777 89.2188 843.664 88.7423 843.437 88.3339C843.222 87.9142 842.921 87.5852 842.535 87.3469C842.161 87.0974 841.724 86.9726 841.225 86.9726C840.714 86.9726 840.266 87.0974 839.881 87.3469C839.495 87.5852 839.189 87.9142 838.962 88.3339C838.746 88.7423 838.638 89.2188 838.638 89.7633C838.638 90.2965 838.746 90.7786 838.962 91.2097C839.189 91.6295 839.495 91.9585 839.881 92.1967C840.266 92.4349 840.714 92.554 841.225 92.554ZM851.322 94.596C850.335 94.596 849.472 94.3635 848.735 93.8984C848.009 93.4219 847.51 92.7809 847.238 91.9755L848.905 91.1757C849.143 91.6975 849.472 92.1059 849.892 92.4009C850.323 92.6959 850.8 92.8433 851.322 92.8433C851.73 92.8433 852.053 92.7526 852.292 92.5711C852.53 92.3896 852.649 92.1513 852.649 91.8564C852.649 91.6749 852.598 91.5274 852.496 91.4139C852.405 91.2891 852.275 91.187 852.104 91.1076C851.946 91.0169 851.77 90.9431 851.577 90.8864L850.062 90.461C849.28 90.2341 848.684 89.8881 848.276 89.423C847.879 88.9579 847.68 88.4077 847.68 87.7724C847.68 87.2051 847.822 86.7117 848.105 86.2919C848.4 85.8608 848.803 85.5262 849.314 85.2879C849.835 85.0497 850.431 84.9306 851.1 84.9306C851.974 84.9306 852.745 85.1405 853.415 85.5602C854.084 85.9799 854.56 86.5699 854.844 87.3299L853.142 88.1297C852.984 87.71 852.717 87.3753 852.343 87.1257C851.968 86.8762 851.548 86.7514 851.083 86.7514C850.709 86.7514 850.414 86.8364 850.199 87.0066C849.983 87.1768 849.875 87.398 849.875 87.6703C849.875 87.8404 849.921 87.9879 850.011 88.1127C850.102 88.2375 850.227 88.3396 850.386 88.419C850.556 88.4984 850.749 88.5721 850.964 88.6402L852.445 89.0826C853.205 89.3095 853.789 89.6499 854.197 90.1036C854.617 90.5574 854.827 91.1133 854.827 91.7713C854.827 92.3272 854.68 92.8206 854.385 93.2517C854.09 93.6715 853.681 94.0005 853.159 94.2387C852.638 94.4769 852.025 94.596 851.322 94.596ZM856.54 94.3918V85.1348H858.769V94.3918H856.54ZM856.54 84.0968V81.7144H858.769V84.0968H856.54ZM860.828 94.3918V85.1348H862.921V86.9556L862.75 86.6322C862.966 86.0764 863.318 85.6566 863.805 85.373C864.305 85.0781 864.883 84.9306 865.541 84.9306C866.222 84.9306 866.823 85.0781 867.345 85.373C867.878 85.668 868.292 86.082 868.587 86.6152C868.882 87.1371 869.03 87.744 869.03 88.436V94.3918H866.8V88.9635C866.8 88.5551 866.721 88.2035 866.562 87.9085C866.403 87.6135 866.182 87.3867 865.899 87.2278C865.626 87.0577 865.303 86.9726 864.929 86.9726C864.566 86.9726 864.242 87.0577 863.959 87.2278C863.675 87.3867 863.454 87.6135 863.295 87.9085C863.136 88.2035 863.057 88.5551 863.057 88.9635V94.3918H860.828ZM875.407 98.1355C874.715 98.1355 874.074 98.0221 873.484 97.7952C872.894 97.5683 872.384 97.2506 871.953 96.8422C871.533 96.4452 871.227 95.9744 871.034 95.4299L873.11 94.6471C873.246 95.0782 873.512 95.4242 873.91 95.6851C874.318 95.9574 874.817 96.0935 875.407 96.0935C875.861 96.0935 876.258 96.0084 876.598 95.8383C876.95 95.6681 877.222 95.4185 877.415 95.0895C877.608 94.7719 877.704 94.3862 877.704 93.9324V91.8223L878.13 92.3328C877.812 92.8887 877.387 93.3085 876.853 93.5921C876.32 93.8757 875.713 94.0175 875.033 94.0175C874.17 94.0175 873.399 93.819 872.718 93.4219C872.038 93.0248 871.504 92.4803 871.119 91.7883C870.733 91.0963 870.54 90.3192 870.54 89.457C870.54 88.5835 870.733 87.8064 871.119 87.1257C871.504 86.4451 872.032 85.9119 872.701 85.5262C873.371 85.1291 874.131 84.9306 874.982 84.9306C875.674 84.9306 876.28 85.0781 876.802 85.373C877.336 85.6566 877.778 86.0707 878.13 86.6152L877.823 87.1768V85.1348H879.933V93.9324C879.933 94.7379 879.735 95.4582 879.338 96.0935C878.952 96.7288 878.419 97.228 877.738 97.591C877.069 97.954 876.292 98.1355 875.407 98.1355ZM875.305 91.9585C875.781 91.9585 876.195 91.8564 876.547 91.6522C876.91 91.4366 877.194 91.1417 877.398 90.7673C877.602 90.3929 877.704 89.9618 877.704 89.474C877.704 88.9976 877.596 88.5721 877.381 88.1978C877.177 87.8121 876.893 87.5114 876.53 87.2959C876.178 87.0804 875.77 86.9726 875.305 86.9726C874.84 86.9726 874.42 87.0804 874.046 87.2959C873.671 87.5114 873.376 87.8121 873.161 88.1978C872.957 88.5721 872.854 88.9976 872.854 89.474C872.854 89.9505 872.957 90.3759 873.161 90.7503C873.376 91.1246 873.666 91.4196 874.029 91.6351C874.403 91.8507 874.828 91.9585 875.305 91.9585Z" fill="black"/>
<path d="M765.122 121.602V112.821H763.176V111.46H766.715V121.602H765.122ZM770.453 121.602V112.821H768.507V111.46H772.046V121.602H770.453ZM776.816 121.602V111.46H778.11L783.8 119.315L783.187 119.41V111.46H784.78V121.602H783.487L777.837 113.693L778.423 113.584V121.602H776.816ZM790.283 121.765C789.576 121.765 788.927 121.597 788.337 121.262C787.756 120.926 787.293 120.467 786.948 119.887C786.603 119.306 786.431 118.648 786.431 117.913C786.431 117.168 786.603 116.51 786.948 115.939C787.293 115.358 787.756 114.904 788.337 114.577C788.918 114.242 789.566 114.074 790.283 114.074C791.009 114.074 791.658 114.242 792.23 114.577C792.811 114.904 793.269 115.358 793.605 115.939C793.95 116.51 794.122 117.168 794.122 117.913C794.122 118.657 793.95 119.319 793.605 119.9C793.26 120.481 792.797 120.939 792.216 121.275C791.636 121.602 790.991 121.765 790.283 121.765ZM790.283 120.336C790.719 120.336 791.105 120.231 791.441 120.023C791.776 119.814 792.04 119.528 792.23 119.165C792.43 118.793 792.53 118.376 792.53 117.913C792.53 117.45 792.43 117.037 792.23 116.674C792.04 116.311 791.776 116.025 791.441 115.816C791.105 115.607 790.719 115.503 790.283 115.503C789.857 115.503 789.471 115.607 789.126 115.816C788.79 116.025 788.523 116.311 788.323 116.674C788.132 117.037 788.037 117.45 788.037 117.913C788.037 118.376 788.132 118.793 788.323 119.165C788.523 119.528 788.79 119.814 789.126 120.023C789.471 120.231 789.857 120.336 790.283 120.336ZM797.629 121.602L794.743 114.237H796.417L798.636 120.241H798.023L800.242 114.237H801.93L799.031 121.602H797.629ZM806.301 121.765C805.566 121.765 804.912 121.597 804.34 121.262C803.778 120.917 803.338 120.454 803.02 119.873C802.702 119.283 802.543 118.625 802.543 117.899C802.543 117.155 802.702 116.497 803.02 115.925C803.347 115.353 803.782 114.904 804.327 114.577C804.871 114.242 805.489 114.074 806.178 114.074C806.732 114.074 807.226 114.169 807.662 114.36C808.098 114.55 808.465 114.813 808.765 115.149C809.064 115.476 809.291 115.853 809.445 116.279C809.609 116.706 809.69 117.159 809.69 117.64C809.69 117.758 809.686 117.881 809.677 118.008C809.668 118.135 809.65 118.253 809.622 118.362H803.755V117.137H808.751L808.016 117.695C808.107 117.25 808.075 116.855 807.921 116.51C807.776 116.157 807.549 115.88 807.24 115.68C806.941 115.471 806.587 115.367 806.178 115.367C805.77 115.367 805.407 115.471 805.089 115.68C804.772 115.88 804.526 116.17 804.354 116.551C804.182 116.923 804.114 117.377 804.15 117.913C804.104 118.412 804.173 118.847 804.354 119.22C804.545 119.592 804.808 119.882 805.144 120.091C805.489 120.3 805.879 120.404 806.314 120.404C806.759 120.404 807.136 120.304 807.444 120.104C807.762 119.905 808.012 119.646 808.193 119.328L809.445 119.941C809.3 120.286 809.073 120.599 808.765 120.88C808.465 121.153 808.102 121.37 807.676 121.534C807.258 121.688 806.8 121.765 806.301 121.765ZM811.192 121.602V114.237H812.662V115.83L812.471 115.585C812.626 115.086 812.907 114.709 813.315 114.455C813.724 114.201 814.191 114.074 814.718 114.074C815.308 114.074 815.829 114.233 816.283 114.55C816.746 114.859 817.055 115.272 817.209 115.789L816.773 115.83C816.991 115.24 817.322 114.8 817.767 114.509C818.221 114.219 818.738 114.074 819.319 114.074C819.827 114.074 820.285 114.192 820.694 114.428C821.111 114.664 821.443 114.99 821.688 115.408C821.933 115.825 822.055 116.302 822.055 116.837V121.602H820.517V117.259C820.517 116.887 820.449 116.574 820.313 116.32C820.186 116.057 820.004 115.857 819.768 115.721C819.541 115.576 819.274 115.503 818.965 115.503C818.656 115.503 818.384 115.576 818.148 115.721C817.912 115.857 817.726 116.057 817.59 116.32C817.454 116.583 817.386 116.896 817.386 117.259V121.602H815.861V117.259C815.861 116.887 815.793 116.574 815.657 116.32C815.53 116.057 815.348 115.857 815.112 115.721C814.886 115.576 814.613 115.503 814.296 115.503C813.987 115.503 813.715 115.576 813.479 115.721C813.243 115.857 813.057 116.057 812.921 116.32C812.794 116.583 812.73 116.896 812.73 117.259V121.602H811.192ZM827.636 121.765C827.064 121.765 826.542 121.647 826.07 121.411C825.608 121.175 825.249 120.835 824.995 120.39L825.172 120.104V121.602H823.702V111.297H825.24V115.762L824.995 115.408C825.267 114.99 825.63 114.664 826.084 114.428C826.538 114.192 827.055 114.074 827.636 114.074C828.335 114.074 828.961 114.242 829.515 114.577C830.077 114.913 830.517 115.371 830.835 115.952C831.162 116.533 831.325 117.187 831.325 117.913C831.325 118.639 831.162 119.292 830.835 119.873C830.517 120.454 830.082 120.917 829.528 121.262C828.975 121.597 828.344 121.765 827.636 121.765ZM827.486 120.336C827.922 120.336 828.308 120.231 828.643 120.023C828.979 119.814 829.242 119.528 829.433 119.165C829.633 118.793 829.732 118.376 829.732 117.913C829.732 117.45 829.633 117.037 829.433 116.674C829.242 116.311 828.979 116.025 828.643 115.816C828.308 115.607 827.922 115.503 827.486 115.503C827.06 115.503 826.674 115.607 826.329 115.816C825.993 116.025 825.726 116.311 825.526 116.674C825.335 117.037 825.24 117.45 825.24 117.913C825.24 118.376 825.335 118.793 825.526 119.165C825.726 119.528 825.993 119.814 826.329 120.023C826.674 120.231 827.06 120.336 827.486 120.336ZM836.279 121.765C835.544 121.765 834.891 121.597 834.319 121.262C833.756 120.917 833.316 120.454 832.999 119.873C832.681 119.283 832.522 118.625 832.522 117.899C832.522 117.155 832.681 116.497 832.999 115.925C833.325 115.353 833.761 114.904 834.305 114.577C834.85 114.242 835.467 114.074 836.157 114.074C836.71 114.074 837.205 114.169 837.641 114.36C838.076 114.55 838.444 114.813 838.743 115.149C839.043 115.476 839.27 115.853 839.424 116.279C839.587 116.706 839.669 117.159 839.669 117.64C839.669 117.758 839.665 117.881 839.655 118.008C839.646 118.135 839.628 118.253 839.601 118.362H833.734V117.137H838.73L837.995 117.695C838.085 117.25 838.054 116.855 837.899 116.51C837.754 116.157 837.527 115.88 837.219 115.68C836.919 115.471 836.565 115.367 836.157 115.367C835.748 115.367 835.385 115.471 835.068 115.68C834.75 115.88 834.505 116.17 834.333 116.551C834.16 116.923 834.092 117.377 834.128 117.913C834.083 118.412 834.151 118.847 834.333 119.22C834.523 119.592 834.786 119.882 835.122 120.091C835.467 120.3 835.857 120.404 836.293 120.404C836.738 120.404 837.114 120.304 837.423 120.104C837.741 119.905 837.99 119.646 838.172 119.328L839.424 119.941C839.279 120.286 839.052 120.599 838.743 120.88C838.444 121.153 838.081 121.37 837.654 121.534C837.237 121.688 836.779 121.765 836.279 121.765ZM841.17 121.602V114.237H842.641V115.721L842.504 115.503C842.668 115.022 842.931 114.677 843.294 114.468C843.657 114.251 844.093 114.142 844.601 114.142H845.05V115.544H844.41C843.902 115.544 843.489 115.703 843.172 116.02C842.863 116.329 842.709 116.774 842.709 117.355V121.602H841.17ZM848.264 121.602V120.445L851.042 117.477C851.586 116.896 852.013 116.429 852.321 116.075C852.639 115.712 852.866 115.394 853.002 115.122C853.147 114.85 853.22 114.564 853.22 114.264C853.22 113.774 853.07 113.398 852.77 113.134C852.471 112.862 852.085 112.726 851.613 112.726C851.123 112.726 850.701 112.867 850.347 113.148C849.993 113.42 849.748 113.82 849.612 114.346L848.196 113.938C848.305 113.402 848.523 112.939 848.85 112.549C849.176 112.15 849.576 111.841 850.048 111.623C850.529 111.405 851.046 111.297 851.6 111.297C852.244 111.297 852.807 111.419 853.288 111.664C853.769 111.9 854.141 112.231 854.404 112.658C854.676 113.084 854.812 113.579 854.812 114.142C854.812 114.514 854.74 114.877 854.595 115.231C854.458 115.576 854.245 115.943 853.955 116.334C853.664 116.715 853.292 117.146 852.838 117.627L850.388 120.241H855.003V121.602H848.264ZM860.607 121.765C859.799 121.765 859.091 121.547 858.483 121.112C857.875 120.667 857.399 120.054 857.054 119.274C856.718 118.484 856.55 117.568 856.55 116.524C856.55 115.471 856.718 114.555 857.054 113.774C857.399 112.994 857.871 112.386 858.47 111.95C859.078 111.514 859.786 111.297 860.593 111.297C861.401 111.297 862.104 111.514 862.703 111.95C863.312 112.386 863.783 112.998 864.119 113.788C864.464 114.568 864.637 115.48 864.637 116.524C864.637 117.568 864.469 118.484 864.133 119.274C863.797 120.054 863.325 120.667 862.717 121.112C862.118 121.547 861.415 121.765 860.607 121.765ZM860.607 120.295C861.106 120.295 861.537 120.141 861.9 119.832C862.263 119.524 862.545 119.088 862.744 118.525C862.944 117.963 863.044 117.296 863.044 116.524C863.044 115.753 862.944 115.086 862.744 114.523C862.545 113.96 862.263 113.525 861.9 113.216C861.537 112.907 861.102 112.753 860.593 112.753C860.094 112.753 859.663 112.907 859.3 113.216C858.937 113.525 858.656 113.96 858.456 114.523C858.256 115.086 858.157 115.753 858.157 116.524C858.157 117.286 858.256 117.953 858.456 118.525C858.656 119.088 858.937 119.524 859.3 119.832C859.672 120.141 860.108 120.295 860.607 120.295ZM866.145 121.602V120.445L868.922 117.477C869.467 116.896 869.893 116.429 870.202 116.075C870.52 115.712 870.746 115.394 870.883 115.122C871.028 114.85 871.1 114.564 871.1 114.264C871.1 113.774 870.951 113.398 870.651 113.134C870.352 112.862 869.966 112.726 869.494 112.726C869.004 112.726 868.582 112.867 868.228 113.148C867.874 113.42 867.629 113.82 867.493 114.346L866.077 113.938C866.186 113.402 866.404 112.939 866.731 112.549C867.057 112.15 867.457 111.841 867.929 111.623C868.41 111.405 868.927 111.297 869.48 111.297C870.125 111.297 870.688 111.419 871.169 111.664C871.65 111.9 872.022 112.231 872.285 112.658C872.557 113.084 872.693 113.579 872.693 114.142C872.693 114.514 872.621 114.877 872.475 115.231C872.339 115.576 872.126 115.943 871.836 116.334C871.545 116.715 871.173 117.146 870.719 117.627L868.269 120.241H872.884V121.602H866.145ZM877.589 121.765C877.045 121.765 876.532 121.665 876.051 121.466C875.579 121.266 875.171 120.985 874.826 120.622C874.49 120.259 874.25 119.832 874.104 119.342L875.466 118.825C875.647 119.306 875.924 119.678 876.296 119.941C876.668 120.204 877.099 120.336 877.589 120.336C877.989 120.336 878.334 120.259 878.624 120.104C878.923 119.95 879.155 119.732 879.318 119.451C879.491 119.17 879.577 118.829 879.577 118.43C879.577 118.04 879.491 117.704 879.318 117.423C879.155 117.141 878.923 116.928 878.624 116.783C878.334 116.638 877.989 116.565 877.589 116.565C877.426 116.565 877.258 116.579 877.086 116.606C876.922 116.633 876.777 116.669 876.65 116.715L876.296 115.966L878.964 112.821H874.649V111.46H880.761V112.753L878.147 115.884L878.107 115.367C878.715 115.376 879.25 115.512 879.713 115.775C880.176 116.029 880.534 116.383 880.788 116.837C881.052 117.282 881.183 117.799 881.183 118.389C881.183 119.024 881.029 119.601 880.72 120.118C880.412 120.626 879.985 121.03 879.441 121.33C878.905 121.62 878.288 121.765 877.589 121.765Z" fill="black"/>
<g filter="url(#filter2_d_359_462)">
<rect x="244.283" y="49.9222" width="204.2" height="102.1" rx="34.0333" fill="white"/>
</g>
<path d="M266.626 94.596C265.719 94.596 264.879 94.4316 264.108 94.1026C263.348 93.7736 262.678 93.3141 262.1 92.7242C261.533 92.1343 261.09 91.4423 260.772 90.6482C260.455 89.8541 260.296 88.9862 260.296 88.0446C260.296 87.103 260.449 86.2352 260.755 85.4411C261.073 84.6356 261.516 83.9436 262.083 83.365C262.661 82.7751 263.336 82.3214 264.108 82.0037C264.879 81.6747 265.719 81.5102 266.626 81.5102C267.534 81.5102 268.345 81.6634 269.06 81.9697C269.786 82.276 270.398 82.6844 270.897 83.1949C271.397 83.694 271.754 84.2442 271.969 84.8455L269.893 85.8154C269.655 85.1802 269.252 84.6583 268.685 84.2499C268.118 83.8302 267.432 83.6203 266.626 83.6203C265.832 83.6203 265.129 83.8075 264.516 84.1818C263.915 84.5562 263.444 85.0724 263.104 85.7304C262.775 86.3883 262.61 87.1598 262.61 88.0446C262.61 88.9295 262.775 89.7066 263.104 90.3759C263.444 91.0339 263.915 91.5501 264.516 91.9244C265.129 92.2988 265.832 92.486 266.626 92.486C267.432 92.486 268.118 92.2818 268.685 91.8734C269.252 91.4536 269.655 90.9261 269.893 90.2908L271.969 91.2608C271.754 91.862 271.397 92.4179 270.897 92.9284C270.398 93.4276 269.786 93.8303 269.06 94.1366C268.345 94.4429 267.534 94.596 266.626 94.596ZM273.661 94.3918V85.1348H275.754V87.1938L275.584 86.8875C275.8 86.1955 276.134 85.7133 276.588 85.4411C277.053 85.1688 277.609 85.0327 278.256 85.0327H278.8V87.0066H278C277.365 87.0066 276.855 87.2051 276.469 87.6022C276.083 87.9879 275.89 88.5324 275.89 89.2358V94.3918H273.661ZM284.416 94.596C283.463 94.596 282.629 94.3805 281.915 93.9494C281.2 93.5183 280.644 92.9341 280.247 92.1967C279.85 91.4593 279.651 90.6425 279.651 89.7463C279.651 88.8161 279.85 87.9936 280.247 87.2789C280.655 86.5528 281.206 85.9799 281.898 85.5602C282.601 85.1405 283.384 84.9306 284.246 84.9306C284.972 84.9306 285.607 85.0497 286.152 85.2879C286.708 85.5262 287.178 85.8552 287.564 86.2749C287.95 86.6946 288.245 87.1768 288.449 87.7213C288.653 88.2545 288.755 88.8331 288.755 89.457C288.755 89.6158 288.744 89.7803 288.721 89.9505C288.71 90.1207 288.682 90.2681 288.636 90.3929H281.489V88.6913H287.377L286.322 89.491C286.424 88.9692 286.396 88.5041 286.237 88.0957C286.089 87.6873 285.84 87.364 285.488 87.1257C285.148 86.8875 284.734 86.7684 284.246 86.7684C283.781 86.7684 283.367 86.8875 283.004 87.1257C282.641 87.3526 282.363 87.693 282.17 88.1467C281.988 88.5892 281.92 89.128 281.966 89.7633C281.92 90.3305 281.994 90.8354 282.187 91.2778C282.391 91.7089 282.686 92.0435 283.072 92.2818C283.469 92.52 283.923 92.6391 284.433 92.6391C284.944 92.6391 285.375 92.5314 285.726 92.3158C286.089 92.1003 286.373 91.811 286.577 91.448L288.381 92.3328C288.199 92.7753 287.916 93.1666 287.53 93.507C287.144 93.8473 286.685 94.1139 286.152 94.3068C285.63 94.4996 285.051 94.596 284.416 94.596ZM293.22 94.596C292.573 94.596 292.011 94.4883 291.535 94.2727C291.059 94.0572 290.69 93.7509 290.429 93.3538C290.168 92.9454 290.038 92.4746 290.038 91.9414C290.038 91.4309 290.151 90.9772 290.378 90.5801C290.605 90.1717 290.956 89.8314 291.433 89.5591C291.909 89.2868 292.511 89.094 293.237 88.9805L296.266 88.4871V90.1887L293.662 90.6312C293.22 90.7106 292.891 90.8524 292.675 91.0566C292.46 91.2608 292.352 91.5274 292.352 91.8564C292.352 92.174 292.471 92.4293 292.709 92.6221C292.959 92.8036 293.265 92.8944 293.628 92.8944C294.093 92.8944 294.502 92.798 294.853 92.6051C295.216 92.4009 295.494 92.123 295.687 91.7713C295.891 91.4196 295.993 91.0339 295.993 90.6141V88.2318C295.993 87.8348 295.835 87.5058 295.517 87.2448C295.211 86.9726 294.802 86.8364 294.292 86.8364C293.815 86.8364 293.39 86.9669 293.015 87.2278C292.652 87.4774 292.386 87.8121 292.216 88.2318L290.395 87.3469C290.576 86.8591 290.86 86.4394 291.246 86.0877C291.643 85.7247 292.108 85.4411 292.641 85.2369C293.174 85.0327 293.753 84.9306 294.377 84.9306C295.137 84.9306 295.806 85.0724 296.385 85.356C296.963 85.6283 297.411 86.014 297.729 86.5131C298.058 87.0009 298.223 87.5738 298.223 88.2318V94.3918H296.112V92.8093L296.589 92.7753C296.351 93.1723 296.067 93.507 295.738 93.7792C295.409 94.0402 295.035 94.2444 294.615 94.3918C294.195 94.528 293.73 94.596 293.22 94.596ZM304.337 94.4939C303.293 94.4939 302.482 94.2103 301.903 93.6431C301.336 93.0645 301.053 92.2534 301.053 91.2097V87.1257H299.453V85.1348H299.623C300.077 85.1348 300.429 85.0157 300.678 84.7774C300.928 84.5392 301.053 84.1932 301.053 83.7394V83.0247H303.282V85.1348H305.409V87.1257H303.282V91.0906C303.282 91.3969 303.333 91.6578 303.435 91.8734C303.548 92.0889 303.719 92.2534 303.945 92.3669C304.184 92.4803 304.484 92.537 304.847 92.537C304.927 92.537 305.018 92.5314 305.12 92.52C305.233 92.5087 305.341 92.4973 305.443 92.486V94.3918C305.284 94.4145 305.103 94.4372 304.898 94.4599C304.694 94.4826 304.507 94.4939 304.337 94.4939ZM307.146 94.3918V85.1348H309.375V94.3918H307.146ZM307.146 84.0968V81.7144H309.375V84.0968H307.146ZM314.224 94.3918L310.583 85.1348H313.016L315.654 92.4179H314.752L317.406 85.1348H319.84L316.198 94.3918H314.224ZM321.072 94.3918V85.1348H323.301V94.3918H321.072ZM321.072 84.0968V81.7144H323.301V84.0968H321.072ZM329.579 94.4939C328.536 94.4939 327.725 94.2103 327.146 93.6431C326.579 93.0645 326.295 92.2534 326.295 91.2097V87.1257H324.696V85.1348H324.866C325.32 85.1348 325.671 85.0157 325.921 84.7774C326.17 84.5392 326.295 84.1932 326.295 83.7394V83.0247H328.524V85.1348H330.651V87.1257H328.524V91.0906C328.524 91.3969 328.575 91.6578 328.677 91.8734C328.791 92.0889 328.961 92.2534 329.188 92.3669C329.426 92.4803 329.727 92.537 330.09 92.537C330.169 92.537 330.26 92.5314 330.362 92.52C330.476 92.5087 330.583 92.4973 330.685 92.486V94.3918C330.527 94.4145 330.345 94.4372 330.141 94.4599C329.937 94.4826 329.75 94.4939 329.579 94.4939ZM333.512 98.1525C333.262 98.1525 333.018 98.1298 332.78 98.0845C332.542 98.0504 332.326 97.988 332.133 97.8973V96.0254C332.281 96.0595 332.457 96.0935 332.661 96.1275C332.876 96.1616 333.075 96.1786 333.256 96.1786C333.767 96.1786 334.136 96.0595 334.362 95.8212C334.601 95.583 334.811 95.271 334.992 94.8853L335.605 93.4559L335.571 95.3278L331.538 85.1348H333.937L336.762 92.6561H335.911L338.719 85.1348H341.135L337.102 95.3278C336.864 95.929 336.575 96.4395 336.234 96.8593C335.894 97.279 335.497 97.5967 335.043 97.8122C334.601 98.0391 334.09 98.1525 333.512 98.1525ZM346.456 94.3918V87.1257H344.822V85.1348H346.456V84.8285C346.456 84.1251 346.598 83.5295 346.881 83.0417C347.176 82.5426 347.585 82.1625 348.106 81.9016C348.628 81.6407 349.246 81.5102 349.961 81.5102C350.097 81.5102 350.245 81.5216 350.404 81.5443C350.574 81.5556 350.716 81.5726 350.829 81.5953V83.5182C350.716 83.4955 350.608 83.4842 350.506 83.4842C350.415 83.4728 350.33 83.4671 350.25 83.4671C349.751 83.4671 349.366 83.5806 349.093 83.8075C348.821 84.023 348.685 84.3634 348.685 84.8285V85.1348H350.744V87.1257H348.685V94.3918H346.456ZM356.557 94.596C355.65 94.596 354.822 94.3862 354.073 93.9664C353.335 93.5467 352.746 92.9738 352.303 92.2477C351.872 91.5217 351.656 90.6936 351.656 89.7633C351.656 88.8331 351.872 88.0049 352.303 87.2789C352.746 86.5528 353.335 85.9799 354.073 85.5602C354.81 85.1405 355.638 84.9306 356.557 84.9306C357.465 84.9306 358.287 85.1405 359.025 85.5602C359.762 85.9799 360.346 86.5528 360.777 87.2789C361.22 87.9936 361.441 88.8217 361.441 89.7633C361.441 90.6936 361.22 91.5217 360.777 92.2477C360.335 92.9738 359.745 93.5467 359.008 93.9664C358.27 94.3862 357.453 94.596 356.557 94.596ZM356.557 92.554C357.056 92.554 357.493 92.4349 357.868 92.1967C358.253 91.9585 358.554 91.6295 358.769 91.2097C358.996 90.7786 359.11 90.2965 359.11 89.7633C359.11 89.2188 358.996 88.7423 358.769 88.3339C358.554 87.9142 358.253 87.5852 357.868 87.3469C357.493 87.0974 357.056 86.9726 356.557 86.9726C356.047 86.9726 355.599 87.0974 355.213 87.3469C354.827 87.5852 354.521 87.9142 354.294 88.3339C354.079 88.7423 353.971 89.2188 353.971 89.7633C353.971 90.2965 354.079 90.7786 354.294 91.2097C354.521 91.6295 354.827 91.9585 355.213 92.1967C355.599 92.4349 356.047 92.554 356.557 92.554ZM363.132 94.3918V85.1348H365.225V87.1938L365.054 86.8875C365.27 86.1955 365.605 85.7133 366.058 85.4411C366.524 85.1688 367.079 85.0327 367.726 85.0327H368.271V87.0066H367.471C366.836 87.0066 366.325 87.2051 365.939 87.6022C365.554 87.9879 365.361 88.5324 365.361 89.2358V94.3918H363.132ZM378.664 94.596C377.756 94.596 376.917 94.4316 376.145 94.1026C375.385 93.7736 374.716 93.3141 374.137 92.7242C373.57 92.1343 373.128 91.4423 372.81 90.6482C372.492 89.8541 372.333 88.9862 372.333 88.0446C372.333 87.103 372.487 86.2352 372.793 85.4411C373.111 84.6356 373.553 83.9436 374.12 83.365C374.699 82.7751 375.374 82.3214 376.145 82.0037C376.917 81.6747 377.756 81.5102 378.664 81.5102C379.571 81.5102 380.382 81.6634 381.097 81.9697C381.823 82.276 382.436 82.6844 382.935 83.1949C383.434 83.694 383.791 84.2442 384.007 84.8455L381.931 85.8154C381.693 85.1802 381.29 84.6583 380.723 84.2499C380.155 83.8302 379.469 83.6203 378.664 83.6203C377.87 83.6203 377.166 83.8075 376.554 84.1818C375.952 84.5562 375.482 85.0724 375.141 85.7304C374.812 86.3883 374.648 87.1598 374.648 88.0446C374.648 88.9295 374.812 89.7066 375.141 90.3759C375.482 91.0339 375.952 91.5501 376.554 91.9244C377.166 92.2988 377.87 92.486 378.664 92.486C379.469 92.486 380.155 92.2818 380.723 91.8734C381.29 91.4536 381.693 90.9261 381.931 90.2908L384.007 91.2608C383.791 91.862 383.434 92.4179 382.935 92.9284C382.436 93.4276 381.823 93.8303 381.097 94.1366C380.382 94.4429 379.571 94.596 378.664 94.596ZM385.699 94.3918V81.5102H387.928V86.9556L387.621 86.6322C387.837 86.0764 388.189 85.6566 388.677 85.373C389.176 85.0781 389.754 84.9306 390.412 84.9306C391.093 84.9306 391.694 85.0781 392.216 85.373C392.749 85.668 393.163 86.082 393.458 86.6152C393.753 87.1371 393.901 87.744 393.901 88.436V94.3918H391.671V88.9635C391.671 88.5551 391.592 88.2035 391.433 87.9085C391.274 87.6135 391.053 87.3867 390.77 87.2278C390.497 87.0577 390.174 86.9726 389.8 86.9726C389.437 86.9726 389.113 87.0577 388.83 87.2278C388.546 87.3867 388.325 87.6135 388.166 87.9085C388.007 88.2035 387.928 88.5551 387.928 88.9635V94.3918H385.699ZM398.593 94.596C397.947 94.596 397.385 94.4883 396.909 94.2727C396.432 94.0572 396.064 93.7509 395.803 93.3538C395.542 92.9454 395.411 92.4746 395.411 91.9414C395.411 91.4309 395.525 90.9772 395.752 90.5801C395.978 90.1717 396.33 89.8314 396.807 89.5591C397.283 89.2868 397.884 89.094 398.61 88.9805L401.639 88.4871V90.1887L399.036 90.6312C398.593 90.7106 398.264 90.8524 398.049 91.0566C397.833 91.2608 397.726 91.5274 397.726 91.8564C397.726 92.174 397.845 92.4293 398.083 92.6221C398.332 92.8036 398.639 92.8944 399.002 92.8944C399.467 92.8944 399.875 92.798 400.227 92.6051C400.59 92.4009 400.868 92.123 401.061 91.7713C401.265 91.4196 401.367 91.0339 401.367 90.6141V88.2318C401.367 87.8348 401.208 87.5058 400.891 87.2448C400.584 86.9726 400.176 86.8364 399.665 86.8364C399.189 86.8364 398.764 86.9669 398.389 87.2278C398.026 87.4774 397.76 87.8121 397.589 88.2318L395.769 87.3469C395.95 86.8591 396.234 86.4394 396.619 86.0877C397.016 85.7247 397.482 85.4411 398.015 85.2369C398.548 85.0327 399.127 84.9306 399.75 84.9306C400.511 84.9306 401.18 85.0724 401.758 85.356C402.337 85.6283 402.785 86.014 403.103 86.5131C403.432 87.0009 403.596 87.5738 403.596 88.2318V94.3918H401.486V92.8093L401.963 92.7753C401.724 93.1723 401.441 93.507 401.112 93.7792C400.783 94.0402 400.408 94.2444 399.989 94.3918C399.569 94.528 399.104 94.596 398.593 94.596ZM405.657 94.3918V85.1348H407.75V87.1938L407.579 86.8875C407.795 86.1955 408.13 85.7133 408.583 85.4411C409.049 85.1688 409.604 85.0327 410.251 85.0327H410.796V87.0066H409.996C409.361 87.0066 408.85 87.2051 408.464 87.6022C408.079 87.9879 407.886 88.5324 407.886 89.2358V94.3918H405.657ZM412.021 94.3918V85.1348H414.25V94.3918H412.021ZM412.021 84.0968V81.7144H414.25V84.0968H412.021ZM420.529 94.4939C419.485 94.4939 418.674 94.2103 418.095 93.6431C417.528 93.0645 417.245 92.2534 417.245 91.2097V87.1257H415.645V85.1348H415.815C416.269 85.1348 416.621 85.0157 416.87 84.7774C417.12 84.5392 417.245 84.1932 417.245 83.7394V83.0247H419.474V85.1348H421.601V87.1257H419.474V91.0906C419.474 91.3969 419.525 91.6578 419.627 91.8734C419.74 92.0889 419.911 92.2534 420.137 92.3669C420.376 92.4803 420.676 92.537 421.039 92.537C421.119 92.537 421.209 92.5314 421.312 92.52C421.425 92.5087 421.533 92.4973 421.635 92.486V94.3918C421.476 94.4145 421.295 94.4372 421.09 94.4599C420.886 94.4826 420.699 94.4939 420.529 94.4939ZM424.461 98.1525C424.211 98.1525 423.968 98.1298 423.729 98.0845C423.491 98.0504 423.276 97.988 423.083 97.8973V96.0254C423.23 96.0595 423.406 96.0935 423.61 96.1275C423.826 96.1616 424.024 96.1786 424.206 96.1786C424.716 96.1786 425.085 96.0595 425.312 95.8212C425.55 95.583 425.76 95.271 425.942 94.8853L426.554 93.4559L426.52 95.3278L422.487 85.1348H424.886L427.711 92.6561H426.86L429.668 85.1348H432.085L428.052 95.3278C427.813 95.929 427.524 96.4395 427.184 96.8593C426.843 97.279 426.446 97.5967 425.993 97.8122C425.55 98.0391 425.04 98.1525 424.461 98.1525Z" fill="black"/>
<path d="M288.642 121.602V112.821H286.696V111.46H290.235V121.602H288.642ZM298.558 121.765C297.923 121.765 297.333 121.647 296.789 121.411C296.244 121.166 295.781 120.835 295.4 120.418C295.019 120 294.738 119.519 294.556 118.974L295.917 118.403C296.162 119.029 296.521 119.51 296.993 119.846C297.465 120.182 298.009 120.349 298.626 120.349C298.989 120.349 299.307 120.295 299.579 120.186C299.852 120.068 300.06 119.905 300.206 119.696C300.36 119.487 300.437 119.247 300.437 118.974C300.437 118.602 300.333 118.307 300.124 118.09C299.915 117.872 299.607 117.699 299.198 117.572L297.292 116.973C296.53 116.737 295.949 116.379 295.55 115.898C295.151 115.408 294.951 114.836 294.951 114.183C294.951 113.611 295.092 113.112 295.373 112.685C295.654 112.25 296.04 111.909 296.53 111.664C297.029 111.419 297.596 111.297 298.232 111.297C298.84 111.297 299.393 111.405 299.892 111.623C300.392 111.832 300.818 112.122 301.172 112.495C301.535 112.867 301.798 113.298 301.962 113.788L300.628 114.373C300.428 113.838 300.115 113.425 299.688 113.134C299.271 112.844 298.785 112.699 298.232 112.699C297.896 112.699 297.601 112.758 297.347 112.876C297.093 112.985 296.893 113.148 296.748 113.366C296.612 113.575 296.544 113.82 296.544 114.101C296.544 114.428 296.648 114.718 296.857 114.972C297.065 115.226 297.383 115.417 297.81 115.544L299.579 116.102C300.387 116.347 300.995 116.701 301.404 117.164C301.812 117.618 302.016 118.185 302.016 118.866C302.016 119.428 301.866 119.927 301.567 120.363C301.277 120.799 300.873 121.144 300.355 121.398C299.838 121.643 299.239 121.765 298.558 121.765ZM307.127 121.765C306.392 121.765 305.739 121.597 305.167 121.262C304.604 120.917 304.164 120.454 303.847 119.873C303.529 119.283 303.37 118.625 303.37 117.899C303.37 117.155 303.529 116.497 303.847 115.925C304.173 115.353 304.609 114.904 305.154 114.577C305.698 114.242 306.315 114.074 307.005 114.074C307.559 114.074 308.053 114.169 308.489 114.36C308.924 114.55 309.292 114.813 309.591 115.149C309.891 115.476 310.118 115.853 310.272 116.279C310.435 116.706 310.517 117.159 310.517 117.64C310.517 117.758 310.513 117.881 310.504 118.008C310.494 118.135 310.476 118.253 310.449 118.362H304.582V117.137H309.578L308.843 117.695C308.933 117.25 308.902 116.855 308.747 116.51C308.602 116.157 308.375 115.88 308.067 115.68C307.767 115.471 307.413 115.367 307.005 115.367C306.597 115.367 306.234 115.471 305.916 115.68C305.598 115.88 305.353 116.17 305.181 116.551C305.008 116.923 304.94 117.377 304.977 117.913C304.931 118.412 304.999 118.847 305.181 119.22C305.371 119.592 305.635 119.882 305.97 120.091C306.315 120.3 306.705 120.404 307.141 120.404C307.586 120.404 307.962 120.304 308.271 120.104C308.589 119.905 308.838 119.646 309.02 119.328L310.272 119.941C310.127 120.286 309.9 120.599 309.591 120.88C309.292 121.153 308.929 121.37 308.502 121.534C308.085 121.688 307.627 121.765 307.127 121.765ZM312.018 124.325V114.237H313.489V115.762L313.312 115.408C313.584 114.99 313.947 114.664 314.401 114.428C314.855 114.192 315.372 114.074 315.953 114.074C316.652 114.074 317.278 114.242 317.831 114.577C318.394 114.913 318.834 115.371 319.152 115.952C319.479 116.533 319.642 117.187 319.642 117.913C319.642 118.639 319.479 119.292 319.152 119.873C318.834 120.454 318.399 120.917 317.845 121.262C317.291 121.597 316.661 121.765 315.953 121.765C315.381 121.765 314.859 121.647 314.387 121.411C313.924 121.175 313.566 120.835 313.312 120.39L313.557 120.104V124.325H312.018ZM315.803 120.336C316.239 120.336 316.624 120.231 316.96 120.023C317.296 119.814 317.559 119.528 317.75 119.165C317.949 118.793 318.049 118.376 318.049 117.913C318.049 117.45 317.949 117.037 317.75 116.674C317.559 116.311 317.296 116.025 316.96 115.816C316.624 115.607 316.239 115.503 315.803 115.503C315.376 115.503 314.991 115.607 314.646 115.816C314.31 116.025 314.042 116.311 313.843 116.674C313.652 117.037 313.557 117.45 313.557 117.913C313.557 118.376 313.652 118.793 313.843 119.165C314.042 119.528 314.31 119.814 314.646 120.023C314.991 120.231 315.376 120.336 315.803 120.336ZM324.191 121.684C323.419 121.684 322.82 121.466 322.394 121.03C321.967 120.594 321.754 119.982 321.754 119.192V115.626H320.461V114.237H320.665C321.01 114.237 321.278 114.137 321.468 113.938C321.659 113.738 321.754 113.466 321.754 113.121V112.549H323.292V114.237H324.967V115.626H323.292V119.124C323.292 119.378 323.333 119.596 323.415 119.778C323.497 119.95 323.628 120.086 323.81 120.186C323.991 120.277 324.227 120.322 324.518 120.322C324.59 120.322 324.672 120.318 324.763 120.309C324.853 120.3 324.94 120.29 325.021 120.281V121.602C324.894 121.62 324.754 121.638 324.599 121.656C324.445 121.674 324.309 121.684 324.191 121.684ZM329.847 121.765C329.112 121.765 328.459 121.597 327.887 121.262C327.324 120.917 326.884 120.454 326.567 119.873C326.249 119.283 326.09 118.625 326.09 117.899C326.09 117.155 326.249 116.497 326.567 115.925C326.893 115.353 327.329 114.904 327.873 114.577C328.418 114.242 329.035 114.074 329.725 114.074C330.278 114.074 330.773 114.169 331.209 114.36C331.644 114.55 332.012 114.813 332.311 115.149C332.611 115.476 332.838 115.853 332.992 116.279C333.155 116.706 333.237 117.159 333.237 117.64C333.237 117.758 333.233 117.881 333.223 118.008C333.214 118.135 333.196 118.253 333.169 118.362H327.302V117.137H332.298L331.563 117.695C331.653 117.25 331.622 116.855 331.467 116.51C331.322 116.157 331.095 115.88 330.787 115.68C330.487 115.471 330.133 115.367 329.725 115.367C329.316 115.367 328.953 115.471 328.636 115.68C328.318 115.88 328.073 116.17 327.901 116.551C327.728 116.923 327.66 117.377 327.696 117.913C327.651 118.412 327.719 118.847 327.901 119.22C328.091 119.592 328.354 119.882 328.69 120.091C329.035 120.3 329.425 120.404 329.861 120.404C330.306 120.404 330.682 120.304 330.991 120.104C331.309 119.905 331.558 119.646 331.74 119.328L332.992 119.941C332.847 120.286 332.62 120.599 332.311 120.88C332.012 121.153 331.649 121.37 331.222 121.534C330.805 121.688 330.347 121.765 329.847 121.765ZM334.738 121.602V114.237H336.209V115.83L336.018 115.585C336.172 115.086 336.454 114.709 336.862 114.455C337.27 114.201 337.738 114.074 338.264 114.074C338.854 114.074 339.376 114.233 339.83 114.55C340.293 114.859 340.601 115.272 340.755 115.789L340.32 115.83C340.538 115.24 340.869 114.8 341.314 114.509C341.767 114.219 342.285 114.074 342.866 114.074C343.374 114.074 343.832 114.192 344.24 114.428C344.658 114.664 344.989 114.99 345.234 115.408C345.479 115.825 345.602 116.302 345.602 116.837V121.602H344.064V117.259C344.064 116.887 343.995 116.574 343.859 116.32C343.732 116.057 343.551 115.857 343.315 115.721C343.088 115.576 342.82 115.503 342.512 115.503C342.203 115.503 341.931 115.576 341.695 115.721C341.459 115.857 341.273 116.057 341.137 116.32C341.001 116.583 340.932 116.896 340.932 117.259V121.602H339.408V117.259C339.408 116.887 339.34 116.574 339.204 116.32C339.076 116.057 338.895 115.857 338.659 115.721C338.432 115.576 338.16 115.503 337.842 115.503C337.534 115.503 337.261 115.576 337.025 115.721C336.789 115.857 336.603 116.057 336.467 116.32C336.34 116.583 336.277 116.896 336.277 117.259V121.602H334.738ZM351.183 121.765C350.611 121.765 350.089 121.647 349.617 121.411C349.154 121.175 348.796 120.835 348.542 120.39L348.719 120.104V121.602H347.248V111.297H348.787V115.762L348.542 115.408C348.814 114.99 349.177 114.664 349.631 114.428C350.084 114.192 350.602 114.074 351.183 114.074C351.881 114.074 352.508 114.242 353.061 114.577C353.624 114.913 354.064 115.371 354.382 115.952C354.708 116.533 354.872 117.187 354.872 117.913C354.872 118.639 354.708 119.292 354.382 119.873C354.064 120.454 353.628 120.917 353.075 121.262C352.521 121.597 351.89 121.765 351.183 121.765ZM351.033 120.336C351.468 120.336 351.854 120.231 352.19 120.023C352.526 119.814 352.789 119.528 352.979 119.165C353.179 118.793 353.279 118.376 353.279 117.913C353.279 117.45 353.179 117.037 352.979 116.674C352.789 116.311 352.526 116.025 352.19 115.816C351.854 115.607 351.468 115.503 351.033 115.503C350.606 115.503 350.221 115.607 349.876 115.816C349.54 116.025 349.272 116.311 349.072 116.674C348.882 117.037 348.787 117.45 348.787 117.913C348.787 118.376 348.882 118.793 349.072 119.165C349.272 119.528 349.54 119.814 349.876 120.023C350.221 120.231 350.606 120.336 351.033 120.336ZM359.826 121.765C359.091 121.765 358.437 121.597 357.866 121.262C357.303 120.917 356.863 120.454 356.545 119.873C356.227 119.283 356.069 118.625 356.069 117.899C356.069 117.155 356.227 116.497 356.545 115.925C356.872 115.353 357.307 114.904 357.852 114.577C358.397 114.242 359.014 114.074 359.703 114.074C360.257 114.074 360.752 114.169 361.187 114.36C361.623 114.55 361.99 114.813 362.29 115.149C362.589 115.476 362.816 115.853 362.971 116.279C363.134 116.706 363.216 117.159 363.216 117.64C363.216 117.758 363.211 117.881 363.202 118.008C363.193 118.135 363.175 118.253 363.148 118.362H357.28V117.137H362.276L361.541 117.695C361.632 117.25 361.6 116.855 361.446 116.51C361.301 116.157 361.074 115.88 360.765 115.68C360.466 115.471 360.112 115.367 359.703 115.367C359.295 115.367 358.932 115.471 358.614 115.68C358.297 115.88 358.052 116.17 357.879 116.551C357.707 116.923 357.639 117.377 357.675 117.913C357.63 118.412 357.698 118.847 357.879 119.22C358.07 119.592 358.333 119.882 358.669 120.091C359.014 120.3 359.404 120.404 359.84 120.404C360.284 120.404 360.661 120.304 360.969 120.104C361.287 119.905 361.537 119.646 361.718 119.328L362.971 119.941C362.825 120.286 362.599 120.599 362.29 120.88C361.99 121.153 361.627 121.37 361.201 121.534C360.783 121.688 360.325 121.765 359.826 121.765ZM364.717 121.602V114.237H366.187V115.721L366.051 115.503C366.214 115.022 366.478 114.677 366.841 114.468C367.204 114.251 367.639 114.142 368.148 114.142H368.597V115.544H367.957C367.449 115.544 367.036 115.703 366.718 116.02C366.41 116.329 366.255 116.774 366.255 117.355V121.602H364.717ZM371.811 121.602V120.445L374.588 117.477C375.133 116.896 375.559 116.429 375.868 116.075C376.185 115.712 376.412 115.394 376.548 115.122C376.694 114.85 376.766 114.564 376.766 114.264C376.766 113.774 376.616 113.398 376.317 113.134C376.018 112.862 375.632 112.726 375.16 112.726C374.67 112.726 374.248 112.867 373.894 113.148C373.54 113.42 373.295 113.82 373.159 114.346L371.743 113.938C371.852 113.402 372.07 112.939 372.396 112.549C372.723 112.15 373.122 111.841 373.594 111.623C374.075 111.405 374.593 111.297 375.146 111.297C375.791 111.297 376.353 111.419 376.834 111.664C377.315 111.9 377.687 112.231 377.951 112.658C378.223 113.084 378.359 113.579 378.359 114.142C378.359 114.514 378.286 114.877 378.141 115.231C378.005 115.576 377.792 115.943 377.501 116.334C377.211 116.715 376.839 117.146 376.385 117.627L373.935 120.241H378.55V121.602H371.811ZM384.154 121.765C383.346 121.765 382.638 121.547 382.03 121.112C381.422 120.667 380.945 120.054 380.601 119.274C380.265 118.484 380.097 117.568 380.097 116.524C380.097 115.471 380.265 114.555 380.601 113.774C380.945 112.994 381.417 112.386 382.016 111.95C382.624 111.514 383.332 111.297 384.14 111.297C384.948 111.297 385.651 111.514 386.25 111.95C386.858 112.386 387.33 112.998 387.666 113.788C388.011 114.568 388.183 115.48 388.183 116.524C388.183 117.568 388.015 118.484 387.679 119.274C387.344 120.054 386.872 120.667 386.264 121.112C385.665 121.547 384.961 121.765 384.154 121.765ZM384.154 120.295C384.653 120.295 385.084 120.141 385.447 119.832C385.81 119.524 386.091 119.088 386.291 118.525C386.491 117.963 386.59 117.296 386.59 116.524C386.59 115.753 386.491 115.086 386.291 114.523C386.091 113.96 385.81 113.525 385.447 113.216C385.084 112.907 384.648 112.753 384.14 112.753C383.641 112.753 383.21 112.907 382.847 113.216C382.484 113.525 382.202 113.96 382.003 114.523C381.803 115.086 381.703 115.753 381.703 116.524C381.703 117.286 381.803 117.953 382.003 118.525C382.202 119.088 382.484 119.524 382.847 119.832C383.219 120.141 383.654 120.295 384.154 120.295ZM389.692 121.602V120.445L392.469 117.477C393.013 116.896 393.44 116.429 393.749 116.075C394.066 115.712 394.293 115.394 394.429 115.122C394.574 114.85 394.647 114.564 394.647 114.264C394.647 113.774 394.497 113.398 394.198 113.134C393.898 112.862 393.513 112.726 393.041 112.726C392.551 112.726 392.129 112.867 391.775 113.148C391.421 113.42 391.176 113.82 391.04 114.346L389.624 113.938C389.733 113.402 389.95 112.939 390.277 112.549C390.604 112.15 391.003 111.841 391.475 111.623C391.956 111.405 392.473 111.297 393.027 111.297C393.671 111.297 394.234 111.419 394.715 111.664C395.196 111.9 395.568 112.231 395.831 112.658C396.104 113.084 396.24 113.579 396.24 114.142C396.24 114.514 396.167 114.877 396.022 115.231C395.886 115.576 395.673 115.943 395.382 116.334C395.092 116.715 394.72 117.146 394.266 117.627L391.815 120.241H396.43V121.602H389.692ZM401.136 121.765C400.591 121.765 400.079 121.665 399.598 121.466C399.126 121.266 398.717 120.985 398.372 120.622C398.037 120.259 397.796 119.832 397.651 119.342L399.012 118.825C399.194 119.306 399.471 119.678 399.843 119.941C400.215 120.204 400.646 120.336 401.136 120.336C401.535 120.336 401.88 120.259 402.171 120.104C402.47 119.95 402.701 119.732 402.865 119.451C403.037 119.17 403.123 118.829 403.123 118.43C403.123 118.04 403.037 117.704 402.865 117.423C402.701 117.141 402.47 116.928 402.171 116.783C401.88 116.638 401.535 116.565 401.136 116.565C400.973 116.565 400.805 116.579 400.632 116.606C400.469 116.633 400.324 116.669 400.197 116.715L399.843 115.966L402.511 112.821H398.195V111.46H404.308V112.753L401.694 115.884L401.653 115.367C402.261 115.376 402.797 115.512 403.26 115.775C403.722 116.029 404.081 116.383 404.335 116.837C404.598 117.282 404.73 117.799 404.73 118.389C404.73 119.024 404.576 119.601 404.267 120.118C403.958 120.626 403.532 121.03 402.987 121.33C402.452 121.62 401.835 121.765 401.136 121.765Z" fill="black"/>
<g filter="url(#filter3_d_359_462)">
<rect x="482.517" y="49.9222" width="204.2" height="102.1" rx="34.0333" fill="white"/>
</g>
<path d="M537.765 94.3918V81.7144H543.108C543.947 81.7144 544.662 81.8619 545.252 82.1569C545.853 82.4405 546.313 82.8489 546.63 83.3821C546.959 83.9039 547.124 84.5392 547.124 85.2879C547.124 85.8665 546.965 86.411 546.647 86.9215C546.341 87.4207 545.847 87.8348 545.167 88.1637V87.0917C545.791 87.3299 546.284 87.6249 546.647 87.9766C547.01 88.3282 547.266 88.7196 547.413 89.1507C547.56 89.5818 547.634 90.0356 547.634 90.512C547.634 91.7259 547.232 92.6788 546.426 93.3708C545.632 94.0515 544.526 94.3918 543.108 94.3918H537.765ZM540.079 92.3498H543.346C543.947 92.3498 544.424 92.1854 544.775 91.8564C545.138 91.516 545.32 91.0679 545.32 90.512C545.32 89.9562 545.138 89.5081 544.775 89.1677C544.424 88.8274 543.947 88.6572 543.346 88.6572H540.079V92.3498ZM540.079 86.6322H543.227C543.703 86.6322 544.083 86.4961 544.367 86.2238C544.651 85.9402 544.792 85.5772 544.792 85.1348C544.792 84.6923 544.651 84.3407 544.367 84.0797C544.083 83.8188 543.703 83.6884 543.227 83.6884H540.079V86.6322ZM552.151 94.596C551.504 94.596 550.942 94.4883 550.466 94.2727C549.989 94.0572 549.621 93.7509 549.36 93.3538C549.099 92.9454 548.968 92.4746 548.968 91.9414C548.968 91.4309 549.082 90.9772 549.309 90.5801C549.536 90.1717 549.887 89.8314 550.364 89.5591C550.84 89.2868 551.442 89.094 552.168 88.9805L555.197 88.4871V90.1887L552.593 90.6312C552.151 90.7106 551.822 90.8524 551.606 91.0566C551.39 91.2608 551.283 91.5274 551.283 91.8564C551.283 92.174 551.402 92.4293 551.64 92.6221C551.89 92.8036 552.196 92.8944 552.559 92.8944C553.024 92.8944 553.432 92.798 553.784 92.6051C554.147 92.4009 554.425 92.123 554.618 91.7713C554.822 91.4196 554.924 91.0339 554.924 90.6141V88.2318C554.924 87.8348 554.765 87.5058 554.448 87.2448C554.142 86.9726 553.733 86.8364 553.223 86.8364C552.746 86.8364 552.321 86.9669 551.946 87.2278C551.583 87.4774 551.317 87.8121 551.147 88.2318L549.326 87.3469C549.507 86.8591 549.791 86.4394 550.177 86.0877C550.574 85.7247 551.039 85.4411 551.572 85.2369C552.105 85.0327 552.684 84.9306 553.308 84.9306C554.068 84.9306 554.737 85.0724 555.316 85.356C555.894 85.6283 556.342 86.014 556.66 86.5131C556.989 87.0009 557.153 87.5738 557.153 88.2318V94.3918H555.043V92.8093L555.52 92.7753C555.282 93.1723 554.998 93.507 554.669 93.7792C554.34 94.0402 553.966 94.2444 553.546 94.3918C553.126 94.528 552.661 94.596 552.151 94.596ZM559.214 94.3918V81.5102H561.443V89.9505L560.592 89.6952L564.948 85.1348H567.722L564.302 88.8614L567.79 94.3918H565.238L562.209 89.5931L563.536 89.3209L560.745 92.3158L561.443 90.9545V94.3918H559.214ZM573.255 94.4939C572.211 94.4939 571.4 94.2103 570.822 93.6431C570.254 93.0645 569.971 92.2534 569.971 91.2097V87.1257H568.371V85.1348H568.541C568.995 85.1348 569.347 85.0157 569.596 84.7774C569.846 84.5392 569.971 84.1932 569.971 83.7394V83.0247H572.2V85.1348H574.327V87.1257H572.2V91.0906C572.2 91.3969 572.251 91.6578 572.353 91.8734C572.467 92.0889 572.637 92.2534 572.864 92.3669C573.102 92.4803 573.403 92.537 573.766 92.537C573.845 92.537 573.936 92.5314 574.038 92.52C574.151 92.5087 574.259 92.4973 574.361 92.486V94.3918C574.202 94.4145 574.021 94.4372 573.817 94.4599C573.612 94.4826 573.425 94.4939 573.255 94.4939ZM576.064 94.3918V85.1348H578.293V94.3918H576.064ZM576.064 84.0968V81.7144H578.293V84.0968H576.064ZM588.09 94.596C587.284 94.596 586.536 94.4486 585.844 94.1536C585.163 93.8587 584.573 93.4503 584.074 92.9284C583.586 92.3952 583.229 91.777 583.002 91.0736L584.925 90.2398C585.231 90.9658 585.673 91.5387 586.252 91.9585C586.831 92.3669 587.483 92.5711 588.209 92.5711C588.617 92.5711 588.969 92.5087 589.264 92.3839C589.57 92.2477 589.803 92.0662 589.962 91.8393C590.132 91.6125 590.217 91.3402 590.217 91.0225C590.217 90.6482 590.103 90.3419 589.877 90.1036C589.661 89.8541 589.332 89.6612 588.89 89.5251L586.456 88.7423C585.469 88.436 584.726 87.9766 584.227 87.364C583.728 86.7514 583.478 86.031 583.478 85.2028C583.478 84.4768 583.654 83.8358 584.006 83.28C584.369 82.7241 584.868 82.293 585.503 81.9867C586.15 81.6691 586.887 81.5102 587.715 81.5102C588.475 81.5102 589.173 81.6464 589.808 81.9186C590.444 82.1796 590.988 82.5482 591.442 83.0247C591.907 83.4898 592.253 84.04 592.48 84.6753L590.574 85.5262C590.325 84.8909 589.95 84.4031 589.451 84.0627C588.952 83.7111 588.373 83.5352 587.715 83.5352C587.33 83.5352 586.989 83.6033 586.694 83.7394C586.399 83.8642 586.167 84.0457 585.997 84.2839C585.838 84.5108 585.758 84.7831 585.758 85.1007C585.758 85.4524 585.872 85.7644 586.099 86.0367C586.326 86.2976 586.672 86.5018 587.137 86.6493L589.468 87.381C590.478 87.71 591.232 88.1637 591.731 88.7423C592.242 89.3209 592.497 90.0356 592.497 90.8864C592.497 91.6125 592.31 92.2534 591.936 92.8093C591.561 93.3652 591.045 93.8019 590.387 94.1196C589.729 94.4372 588.963 94.596 588.09 94.596ZM598.92 94.596C598.013 94.596 597.185 94.3862 596.436 93.9664C595.698 93.5467 595.108 92.9738 594.666 92.2477C594.235 91.5217 594.019 90.6936 594.019 89.7633C594.019 88.8331 594.235 88.0049 594.666 87.2789C595.108 86.5528 595.698 85.9799 596.436 85.5602C597.173 85.1405 598.001 84.9306 598.92 84.9306C599.828 84.9306 600.65 85.1405 601.388 85.5602C602.125 85.9799 602.709 86.5528 603.14 87.2789C603.583 87.9936 603.804 88.8217 603.804 89.7633C603.804 90.6936 603.583 91.5217 603.14 92.2477C602.698 92.9738 602.108 93.5467 601.371 93.9664C600.633 94.3862 599.816 94.596 598.92 94.596ZM598.92 92.554C599.419 92.554 599.856 92.4349 600.23 92.1967C600.616 91.9585 600.917 91.6295 601.132 91.2097C601.359 90.7786 601.473 90.2965 601.473 89.7633C601.473 89.2188 601.359 88.7423 601.132 88.3339C600.917 87.9142 600.616 87.5852 600.23 87.3469C599.856 87.0974 599.419 86.9726 598.92 86.9726C598.41 86.9726 597.962 87.0974 597.576 87.3469C597.19 87.5852 596.884 87.9142 596.657 88.3339C596.441 88.7423 596.334 89.2188 596.334 89.7633C596.334 90.2965 596.441 90.7786 596.657 91.2097C596.884 91.6295 597.19 91.9585 597.576 92.1967C597.962 92.4349 598.41 92.554 598.92 92.554ZM609.017 94.596C608.03 94.596 607.168 94.3635 606.43 93.8984C605.704 93.4219 605.205 92.7809 604.933 91.9755L606.601 91.1757C606.839 91.6975 607.168 92.1059 607.588 92.4009C608.019 92.6959 608.495 92.8433 609.017 92.8433C609.425 92.8433 609.749 92.7526 609.987 92.5711C610.225 92.3896 610.344 92.1513 610.344 91.8564C610.344 91.6749 610.293 91.5274 610.191 91.4139C610.1 91.2891 609.97 91.187 609.8 91.1076C609.641 91.0169 609.465 90.9431 609.272 90.8864L607.758 90.461C606.975 90.2341 606.379 89.8881 605.971 89.423C605.574 88.9579 605.375 88.4077 605.375 87.7724C605.375 87.2051 605.517 86.7117 605.801 86.2919C606.096 85.8608 606.498 85.5262 607.009 85.2879C607.531 85.0497 608.126 84.9306 608.796 84.9306C609.669 84.9306 610.441 85.1405 611.11 85.5602C611.779 85.9799 612.256 86.5699 612.539 87.3299L610.838 88.1297C610.679 87.71 610.412 87.3753 610.038 87.1257C609.664 86.8762 609.244 86.7514 608.779 86.7514C608.404 86.7514 608.109 86.8364 607.894 87.0066C607.678 87.1768 607.571 87.398 607.571 87.6703C607.571 87.8404 607.616 87.9879 607.707 88.1127C607.797 88.2375 607.922 88.3396 608.081 88.419C608.251 88.4984 608.444 88.5721 608.66 88.6402L610.14 89.0826C610.9 89.3095 611.484 89.6499 611.893 90.1036C612.312 90.5574 612.522 91.1133 612.522 91.7713C612.522 92.3272 612.375 92.8206 612.08 93.2517C611.785 93.6715 611.377 94.0005 610.855 94.2387C610.333 94.4769 609.72 94.596 609.017 94.596ZM614.235 94.3918V85.1348H616.465V94.3918H614.235ZM614.235 84.0968V81.7144H616.465V84.0968H614.235ZM621.331 94.596C620.684 94.596 620.122 94.4883 619.646 94.2727C619.169 94.0572 618.801 93.7509 618.54 93.3538C618.279 92.9454 618.148 92.4746 618.148 91.9414C618.148 91.4309 618.262 90.9772 618.489 90.5801C618.716 90.1717 619.067 89.8314 619.544 89.5591C620.02 89.2868 620.622 89.094 621.348 88.9805L624.377 88.4871V90.1887L621.773 90.6312C621.331 90.7106 621.002 90.8524 620.786 91.0566C620.571 91.2608 620.463 91.5274 620.463 91.8564C620.463 92.174 620.582 92.4293 620.82 92.6221C621.07 92.8036 621.376 92.8944 621.739 92.8944C622.204 92.8944 622.613 92.798 622.964 92.6051C623.327 92.4009 623.605 92.123 623.798 91.7713C624.002 91.4196 624.104 91.0339 624.104 90.6141V88.2318C624.104 87.8348 623.946 87.5058 623.628 87.2448C623.322 86.9726 622.913 86.8364 622.403 86.8364C621.926 86.8364 621.501 86.9669 621.126 87.2278C620.763 87.4774 620.497 87.8121 620.327 88.2318L618.506 87.3469C618.687 86.8591 618.971 86.4394 619.357 86.0877C619.754 85.7247 620.219 85.4411 620.752 85.2369C621.285 85.0327 621.864 84.9306 622.488 84.9306C623.248 84.9306 623.917 85.0724 624.496 85.356C625.074 85.6283 625.522 86.014 625.84 86.5131C626.169 87.0009 626.334 87.5738 626.334 88.2318V94.3918H624.223V92.8093L624.7 92.7753C624.462 93.1723 624.178 93.507 623.849 93.7792C623.52 94.0402 623.146 94.2444 622.726 94.3918C622.306 94.528 621.841 94.596 621.331 94.596ZM628.394 94.3918V81.5102H630.623V94.3918H628.394Z" fill="black"/>
<path d="M533.617 121.602L537.946 112.821H533.072V111.46H539.62V112.821L535.359 121.602H533.617ZM548.49 121.765C547.755 121.765 547.069 121.634 546.434 121.37C545.808 121.107 545.254 120.74 544.773 120.268C544.301 119.796 543.929 119.242 543.657 118.607C543.394 117.972 543.262 117.277 543.262 116.524C543.262 115.771 543.394 115.077 543.657 114.441C543.929 113.797 544.301 113.243 544.773 112.78C545.245 112.308 545.799 111.945 546.434 111.691C547.069 111.428 547.755 111.297 548.49 111.297C549.234 111.297 549.919 111.428 550.545 111.691C551.181 111.945 551.734 112.308 552.206 112.78C552.687 113.252 553.059 113.806 553.322 114.441C553.586 115.077 553.717 115.771 553.717 116.524C553.717 117.277 553.581 117.972 553.309 118.607C553.046 119.242 552.678 119.796 552.206 120.268C551.734 120.74 551.181 121.107 550.545 121.37C549.91 121.634 549.225 121.765 548.49 121.765ZM548.49 120.295C549.016 120.295 549.497 120.2 549.933 120.009C550.377 119.819 550.763 119.555 551.09 119.22C551.417 118.875 551.671 118.475 551.852 118.022C552.034 117.559 552.124 117.06 552.124 116.524C552.124 115.989 552.034 115.494 551.852 115.04C551.671 114.586 551.417 114.187 551.09 113.842C550.763 113.497 550.377 113.23 549.933 113.039C549.497 112.848 549.016 112.753 548.49 112.753C547.963 112.753 547.478 112.848 547.033 113.039C546.597 113.23 546.216 113.497 545.89 113.842C545.563 114.187 545.309 114.586 545.127 115.04C544.955 115.494 544.869 115.989 544.869 116.524C544.869 117.06 544.955 117.559 545.127 118.022C545.309 118.475 545.563 118.875 545.89 119.22C546.216 119.555 546.602 119.819 547.047 120.009C547.491 120.2 547.972 120.295 548.49 120.295ZM555.364 121.602V111.297H556.902V118.199L556.303 118.049L559.992 114.237H561.912L559.134 117.191L562.034 121.602H560.264L557.678 117.695L558.59 117.572L556.412 119.887L556.902 118.866V121.602H555.364ZM566.273 121.684C565.502 121.684 564.903 121.466 564.476 121.03C564.049 120.594 563.836 119.982 563.836 119.192V115.626H562.543V114.237H562.747C563.092 114.237 563.36 114.137 563.55 113.938C563.741 113.738 563.836 113.466 563.836 113.121V112.549H565.375V114.237H567.049V115.626H565.375V119.124C565.375 119.378 565.415 119.596 565.497 119.778C565.579 119.95 565.71 120.086 565.892 120.186C566.073 120.277 566.309 120.322 566.6 120.322C566.672 120.322 566.754 120.318 566.845 120.309C566.936 120.3 567.022 120.29 567.103 120.281V121.602C566.976 121.62 566.836 121.638 566.681 121.656C566.527 121.674 566.391 121.684 566.273 121.684ZM572.025 121.765C571.317 121.765 570.668 121.597 570.078 121.262C569.497 120.926 569.034 120.467 568.689 119.887C568.345 119.306 568.172 118.648 568.172 117.913C568.172 117.168 568.345 116.51 568.689 115.939C569.034 115.358 569.497 114.904 570.078 114.577C570.659 114.242 571.308 114.074 572.025 114.074C572.751 114.074 573.4 114.242 573.971 114.577C574.552 114.904 575.011 115.358 575.346 115.939C575.691 116.51 575.864 117.168 575.864 117.913C575.864 118.657 575.691 119.319 575.346 119.9C575.002 120.481 574.539 120.939 573.958 121.275C573.377 121.602 572.733 121.765 572.025 121.765ZM572.025 120.336C572.46 120.336 572.846 120.231 573.182 120.023C573.518 119.814 573.781 119.528 573.971 119.165C574.171 118.793 574.271 118.376 574.271 117.913C574.271 117.45 574.171 117.037 573.971 116.674C573.781 116.311 573.518 116.025 573.182 115.816C572.846 115.607 572.46 115.503 572.025 115.503C571.598 115.503 571.212 115.607 570.868 115.816C570.532 116.025 570.264 116.311 570.064 116.674C569.874 117.037 569.779 117.45 569.779 117.913C569.779 118.376 569.874 118.793 570.064 119.165C570.264 119.528 570.532 119.814 570.868 120.023C571.212 120.231 571.598 120.336 572.025 120.336ZM581.3 121.765C580.728 121.765 580.206 121.647 579.734 121.411C579.271 121.175 578.913 120.835 578.659 120.39L578.836 120.104V121.602H577.366V111.297H578.904V115.762L578.659 115.408C578.931 114.99 579.294 114.664 579.748 114.428C580.202 114.192 580.719 114.074 581.3 114.074C581.999 114.074 582.625 114.242 583.178 114.577C583.741 114.913 584.181 115.371 584.499 115.952C584.826 116.533 584.989 117.187 584.989 117.913C584.989 118.639 584.826 119.292 584.499 119.873C584.181 120.454 583.746 120.917 583.192 121.262C582.638 121.597 582.008 121.765 581.3 121.765ZM581.15 120.336C581.586 120.336 581.971 120.231 582.307 120.023C582.643 119.814 582.906 119.528 583.097 119.165C583.296 118.793 583.396 118.376 583.396 117.913C583.396 117.45 583.296 117.037 583.097 116.674C582.906 116.311 582.643 116.025 582.307 115.816C581.971 115.607 581.586 115.503 581.15 115.503C580.723 115.503 580.338 115.607 579.993 115.816C579.657 116.025 579.389 116.311 579.19 116.674C578.999 117.037 578.904 117.45 578.904 117.913C578.904 118.376 578.999 118.793 579.19 119.165C579.389 119.528 579.657 119.814 579.993 120.023C580.338 120.231 580.723 120.336 581.15 120.336ZM589.943 121.765C589.208 121.765 588.555 121.597 587.983 121.262C587.42 120.917 586.98 120.454 586.662 119.873C586.345 119.283 586.186 118.625 586.186 117.899C586.186 117.155 586.345 116.497 586.662 115.925C586.989 115.353 587.425 114.904 587.969 114.577C588.514 114.242 589.131 114.074 589.821 114.074C590.374 114.074 590.869 114.169 591.305 114.36C591.74 114.55 592.108 114.813 592.407 115.149C592.707 115.476 592.934 115.853 593.088 116.279C593.251 116.706 593.333 117.159 593.333 117.64C593.333 117.758 593.328 117.881 593.319 118.008C593.31 118.135 593.292 118.253 593.265 118.362H587.397V117.137H592.394L591.658 117.695C591.749 117.25 591.717 116.855 591.563 116.51C591.418 116.157 591.191 115.88 590.883 115.68C590.583 115.471 590.229 115.367 589.821 115.367C589.412 115.367 589.049 115.471 588.732 115.68C588.414 115.88 588.169 116.17 587.996 116.551C587.824 116.923 587.756 117.377 587.792 117.913C587.747 118.412 587.815 118.847 587.996 119.22C588.187 119.592 588.45 119.882 588.786 120.091C589.131 120.3 589.521 120.404 589.957 120.404C590.401 120.404 590.778 120.304 591.087 120.104C591.404 119.905 591.654 119.646 591.835 119.328L593.088 119.941C592.943 120.286 592.716 120.599 592.407 120.88C592.108 121.153 591.745 121.37 591.318 121.534C590.901 121.688 590.442 121.765 589.943 121.765ZM594.834 121.602V114.237H596.304V115.721L596.168 115.503C596.332 115.022 596.595 114.677 596.958 114.468C597.321 114.251 597.757 114.142 598.265 114.142H598.714V115.544H598.074C597.566 115.544 597.153 115.703 596.835 116.02C596.527 116.329 596.373 116.774 596.373 117.355V121.602H594.834ZM601.928 121.602V120.445L604.705 117.477C605.25 116.896 605.676 116.429 605.985 116.075C606.303 115.712 606.53 115.394 606.666 115.122C606.811 114.85 606.883 114.564 606.883 114.264C606.883 113.774 606.734 113.398 606.434 113.134C606.135 112.862 605.749 112.726 605.277 112.726C604.787 112.726 604.365 112.867 604.011 113.148C603.657 113.42 603.412 113.82 603.276 114.346L601.86 113.938C601.969 113.402 602.187 112.939 602.514 112.549C602.84 112.15 603.24 111.841 603.712 111.623C604.193 111.405 604.71 111.297 605.263 111.297C605.908 111.297 606.471 111.419 606.952 111.664C607.433 111.9 607.805 112.231 608.068 112.658C608.34 113.084 608.476 113.579 608.476 114.142C608.476 114.514 608.404 114.877 608.258 115.231C608.122 115.576 607.909 115.943 607.619 116.334C607.328 116.715 606.956 117.146 606.502 117.627L604.052 120.241H608.667V121.602H601.928ZM614.271 121.765C613.463 121.765 612.755 121.547 612.147 121.112C611.539 120.667 611.063 120.054 610.718 119.274C610.382 118.484 610.214 117.568 610.214 116.524C610.214 115.471 610.382 114.555 610.718 113.774C611.063 112.994 611.535 112.386 612.134 111.95C612.742 111.514 613.45 111.297 614.257 111.297C615.065 111.297 615.768 111.514 616.367 111.95C616.975 112.386 617.447 112.998 617.783 113.788C618.128 114.568 618.3 115.48 618.3 116.524C618.3 117.568 618.132 118.484 617.797 119.274C617.461 120.054 616.989 120.667 616.381 121.112C615.782 121.547 615.079 121.765 614.271 121.765ZM614.271 120.295C614.77 120.295 615.201 120.141 615.564 119.832C615.927 119.524 616.208 119.088 616.408 118.525C616.608 117.963 616.708 117.296 616.708 116.524C616.708 115.753 616.608 115.086 616.408 114.523C616.208 113.96 615.927 113.525 615.564 113.216C615.201 112.907 614.765 112.753 614.257 112.753C613.758 112.753 613.327 112.907 612.964 113.216C612.601 113.525 612.32 113.96 612.12 114.523C611.92 115.086 611.82 115.753 611.82 116.524C611.82 117.286 611.92 117.953 612.12 118.525C612.32 119.088 612.601 119.524 612.964 119.832C613.336 120.141 613.772 120.295 614.271 120.295ZM619.809 121.602V120.445L622.586 117.477C623.131 116.896 623.557 116.429 623.866 116.075C624.183 115.712 624.41 115.394 624.546 115.122C624.692 114.85 624.764 114.564 624.764 114.264C624.764 113.774 624.615 113.398 624.315 113.134C624.016 112.862 623.63 112.726 623.158 112.726C622.668 112.726 622.246 112.867 621.892 113.148C621.538 113.42 621.293 113.82 621.157 114.346L619.741 113.938C619.85 113.402 620.068 112.939 620.394 112.549C620.721 112.15 621.12 111.841 621.592 111.623C622.073 111.405 622.591 111.297 623.144 111.297C623.789 111.297 624.351 111.419 624.832 111.664C625.313 111.9 625.685 112.231 625.949 112.658C626.221 113.084 626.357 113.579 626.357 114.142C626.357 114.514 626.284 114.877 626.139 115.231C626.003 115.576 625.79 115.943 625.499 116.334C625.209 116.715 624.837 117.146 624.383 117.627L621.933 120.241H626.548V121.602H619.809ZM631.253 121.765C630.709 121.765 630.196 121.665 629.715 121.466C629.243 121.266 628.835 120.985 628.49 120.622C628.154 120.259 627.913 119.832 627.768 119.342L629.129 118.825C629.311 119.306 629.588 119.678 629.96 119.941C630.332 120.204 630.763 120.336 631.253 120.336C631.652 120.336 631.997 120.259 632.288 120.104C632.587 119.95 632.819 119.732 632.982 119.451C633.154 119.17 633.241 118.829 633.241 118.43C633.241 118.04 633.154 117.704 632.982 117.423C632.819 117.141 632.587 116.928 632.288 116.783C631.997 116.638 631.652 116.565 631.253 116.565C631.09 116.565 630.922 116.579 630.749 116.606C630.586 116.633 630.441 116.669 630.314 116.715L629.96 115.966L632.628 112.821H628.313V111.46H634.425V112.753L631.811 115.884L631.77 115.367C632.379 115.376 632.914 115.512 633.377 115.775C633.84 116.029 634.198 116.383 634.452 116.837C634.715 117.282 634.847 117.799 634.847 118.389C634.847 119.024 634.693 119.601 634.384 120.118C634.076 120.626 633.649 121.03 633.105 121.33C632.569 121.62 631.952 121.765 631.253 121.765Z" fill="black"/>
<rect x="114.5" y="17.5222" width="221.445" height="4.275" fill="#F7D76A"/>
<rect x="359.885" y="17.5222" width="214.605" height="4.275" fill="#F7D76A"/>
<rect x="593.3" y="17.5222" width="222.3" height="4.275" fill="#F7D76A"/>
<ellipse cx="584.75" cy="20.0872" rx="11.97" ry="11.97" fill="#213456"/>
<ellipse cx="824.15" cy="20.0872" rx="11.97" ry="11.97" fill="#213456"/>
<ellipse cx="350.48" cy="17.5222" rx="17.1" ry="17.1" fill="#213456"/>
<ellipse cx="105.95" cy="20.0872" rx="11.97" ry="11.97" fill="#213456"/>
<defs>
<filter id="filter0_d_359_462" x="0.944988" y="44.8172" width="217.813" height="115.713" filterUnits="userSpaceOnUse" color-interpolation-filters="sRGB">
<feFlood flood-opacity="0" result="BackgroundImageFix"/>
<feColorMatrix in="SourceAlpha" type="matrix" values="0 0 0 0 0 0 0 0 0 0 0 0 0 0 0 0 0 0 127 0" result="hardAlpha"/>
<feOffset dx="1.70167" dy="1.70167"/>
<feGaussianBlur stdDeviation="3.40333"/>
<feComposite in2="hardAlpha" operator="out"/>
<feColorMatrix type="matrix" values="0 0 0 0 0.131344 0 0 0 0 0.202026 0 0 0 0 0.3375 0 0 0 1 0"/>
<feBlend mode="normal" in2="BackgroundImageFix" result="effect1_dropShadow_359_462"/>
<feBlend mode="normal" in="SourceGraphic" in2="effect1_dropShadow_359_462" result="shape"/>
</filter>
<filter id="filter1_d_359_462" x="715.645" y="44.8172" width="217.813" height="115.713" filterUnits="userSpaceOnUse" color-interpolation-filters="sRGB">
<feFlood flood-opacity="0" result="BackgroundImageFix"/>
<feColorMatrix in="SourceAlpha" type="matrix" values="0 0 0 0 0 0 0 0 0 0 0 0 0 0 0 0 0 0 127 0" result="hardAlpha"/>
<feOffset dx="1.70167" dy="1.70167"/>
<feGaussianBlur stdDeviation="3.40333"/>
<feComposite in2="hardAlpha" operator="out"/>
<feColorMatrix type="matrix" values="0 0 0 0 0.131344 0 0 0 0 0.202026 0 0 0 0 0.3375 0 0 0 1 0"/>
<feBlend mode="normal" in2="BackgroundImageFix" result="effect1_dropShadow_359_462"/>
<feBlend mode="normal" in="SourceGraphic" in2="effect1_dropShadow_359_462" result="shape"/>
</filter>
<filter id="filter2_d_359_462" x="239.178" y="44.8172" width="217.813" height="115.713" filterUnits="userSpaceOnUse" color-interpolation-filters="sRGB">
<feFlood flood-opacity="0" result="BackgroundImageFix"/>
<feColorMatrix in="SourceAlpha" type="matrix" values="0 0 0 0 0 0 0 0 0 0 0 0 0 0 0 0 0 0 127 0" result="hardAlpha"/>
<feOffset dx="1.70167" dy="1.70167"/>
<feGaussianBlur stdDeviation="3.40333"/>
<feComposite in2="hardAlpha" operator="out"/>
<feColorMatrix type="matrix" values="0 0 0 0 0.131344 0 0 0 0 0.202026 0 0 0 0 0.3375 0 0 0 1 0"/>
<feBlend mode="normal" in2="BackgroundImageFix" result="effect1_dropShadow_359_462"/>
<feBlend mode="normal" in="SourceGraphic" in2="effect1_dropShadow_359_462" result="shape"/>
</filter>
<filter id="filter3_d_359_462" x="477.412" y="44.8172" width="217.813" height="115.713" filterUnits="userSpaceOnUse" color-interpolation-filters="sRGB">
<feFlood flood-opacity="0" result="BackgroundImageFix"/>
<feColorMatrix in="SourceAlpha" type="matrix" values="0 0 0 0 0 0 0 0 0 0 0 0 0 0 0 0 0 0 127 0" result="hardAlpha"/>
<feOffset dx="1.70167" dy="1.70167"/>
<feGaussianBlur stdDeviation="3.40333"/>
<feComposite in2="hardAlpha" operator="out"/>
<feColorMatrix type="matrix" values="0 0 0 0 0.131344 0 0 0 0 0.202026 0 0 0 0 0.3375 0 0 0 1 0"/>
<feBlend mode="normal" in2="BackgroundImageFix" result="effect1_dropShadow_359_462"/>
<feBlend mode="normal" in="SourceGraphic" in2="effect1_dropShadow_359_462" result="shape"/>
</filter>
</defs>
</svg>
